<?xml version="1.0" standalone="no"?>
<!DOCTYPE svg PUBLIC "-//W3C//DTD SVG 1.1//EN" "http://www.w3.org/Graphics/SVG/1.1/DTD/svg11.dtd" >
<svg xmlns="http://www.w3.org/2000/svg" xmlns:xlink="http://www.w3.org/1999/xlink" version="1.1">
<metadata>
Created by FontForge 20170812 at Mon Aug 31 10:29:18 2015
 By www-data
Copyright (c) 2015 by Tarek Atrissi Design. All rights reserved.
</metadata>
<defs>
<font id="Questv1-Bold" horiz-adv-x="0" >
  <font-face 
    font-family="Questv1"
    font-weight="700"
    font-stretch="normal"
    units-per-em="1000"
    panose-1="1 0 5 0 0 0 0 2 0 6"
    ascent="800"
    descent="-200"
    bbox="-126 -489 1282 1198"
    underline-thickness="29"
    underline-position="-451"
    unicode-range="U+0020-FEFC"
  />
<missing-glyph horiz-adv-x="500" 
d="M62 0v562h375v-562h-375zM125 62h250v438h-250v-438z" />
    <glyph glyph-name="shaddehdamatan" unicode="&#x64c;&#x651;" arabic-form="isolated" 
d="M188 813c-9.33301 0 -19.166 1.83203 -29.499 5.49902s-19.5 11.167 -27.5 22.5c-8.66699 -12.667 -18.834 -20.5 -30.501 -23.5s-21.167 -4.5 -28.5 -4.5c-48 0 -72 27.667 -72 83v51h50v-45c0 -26.667 8.66699 -40 26 -40c7.33301 0 14 2.33301 20 7s9 15.334 9 32.001
v46h50v-45c0 -16 3.16699 -26.333 9.5 -31s12.5 -7 18.5 -7c10.667 0 17.5 3 20.5 9s4.5 14.667 4.5 26v48h50v-51c0 -55.333 -23.333 -83 -70 -83zM24 988.999l-25.999 34.0029l78 51l15.5 -16c5 -5.33301 10.833 -10.333 17.5 -15s14.5 -8.5 23.5 -11.5
s20.5 -4.5 34.5 -4.5c10.667 0 19.167 1.33301 25.5 4s11.333 5.66699 15 9s6 6.5 7 9.5s1.83301 4.83301 2.5 5.5c-2 -0.666992 -6.5 -1.5 -13.5 -2.5s-13.167 -1.5 -18.5 -1.5c-21.333 0 -38.666 5.5 -51.999 16.5s-20 27.167 -20 48.5c0 23.333 7.33301 42 22 56
s33 21 55 21c21.333 0 39.666 -6.66699 54.999 -20s23 -37 23 -71c0 -17.333 -1.33301 -33.333 -4 -48s-7.5 -27.334 -14.5 -38.001s-17.167 -18.834 -30.5 -24.501s-30.333 -8.5 -51 -8.5c-14 0 -26.833 1.83301 -38.5 5.5s-21.834 8.16699 -30.501 13.5
c-10 5.33301 -19 11.666 -27 18.999zM194.001 1089c6.66699 0 12.668 0.666992 18.001 2s9.66602 2.66602 12.999 3.99902v7c0 16.667 -3.33301 28.834 -10 36.501s-15 11.5 -25 11.5c-11.333 0 -19.833 -3.33301 -25.5 -10s-8.5 -14 -8.5 -22
c0 -12 4.66699 -19.833 14 -23.5s17.333 -5.5 24 -5.5z" />
    <glyph glyph-name="shaddehkasratan" unicode="&#x64d;&#x651;" arabic-form="isolated" 
d="M188 813c-9.33301 0 -19.166 1.83203 -29.499 5.49902s-19.5 11.167 -27.5 22.5c-8.66699 -12.667 -18.834 -20.5 -30.501 -23.5s-21.167 -4.5 -28.5 -4.5c-48 0 -72 27.667 -72 83v51h50v-45c0 -26.667 8.66699 -40 26 -40c7.33301 0 14 2.33301 20 7s9 15.334 9 32.001
v46h50v-45c0 -16 3.16699 -26.333 9.5 -31s12.5 -7 18.5 -7c10.667 0 17.5 3 20.5 9s4.5 14.667 4.5 26v48h50v-51c0 -55.333 -23.333 -83 -70 -83zM257 1016l-240 -43v48l240 44v-49zM257 1097l-240 -43v48l240 44v-49z" />
    <glyph glyph-name="shaddehfatha" unicode="&#x64e;&#x651;" arabic-form="isolated" 
d="M188 813c-9.33301 0 -19.166 1.83203 -29.499 5.49902s-19.5 11.167 -27.5 22.5c-8.66699 -12.667 -18.834 -20.5 -30.501 -23.5s-21.167 -4.5 -28.5 -4.5c-48 0 -72 27.667 -72 83v51h50v-45c0 -26.667 8.66699 -40 26 -40c7.33301 0 14 2.33301 20 7s9 15.334 9 32.001
v46h50v-45c0 -16 3.16699 -26.333 9.5 -31s12.5 -7 18.5 -7c10.667 0 17.5 3 20.5 9s4.5 14.667 4.5 26v48h50v-51c0 -55.333 -23.333 -83 -70 -83zM254 1030l-240 -43v48l240 44v-49z" />
    <glyph glyph-name="shaddehdamma" unicode="&#x64f;&#x651;" arabic-form="isolated" 
d="M188 813c-9.33301 0 -19.166 1.83203 -29.499 5.49902s-19.5 11.167 -27.5 22.5c-8.66699 -12.667 -18.834 -20.5 -30.501 -23.5s-21.167 -4.5 -28.5 -4.5c-48 0 -72 27.667 -72 83v51h50v-45c0 -26.667 8.66699 -40 26 -40c7.33301 0 14 2.33301 20 7s9 15.334 9 32.001
v46h50v-45c0 -16 3.16699 -26.333 9.5 -31s12.5 -7 18.5 -7c10.667 0 17.5 3 20.5 9s4.5 14.667 4.5 26v48h50v-51c0 -55.333 -23.333 -83 -70 -83zM69 1020l70.999 13c6.66699 0.666992 11.834 2.33398 15.501 5.00098s6.66699 5.5 9 8.5s3.83301 5.83301 4.5 8.5
s1.33398 4.33398 2.00098 5.00098c-2.66699 -0.666992 -7.33398 -1.5 -14.001 -2.5s-12.667 -1.5 -18 -1.5c-21.333 0 -38.666 5.5 -51.999 16.5s-20 27.167 -20 48.5c0 23.333 7.33301 42 22 56s33 21 55 21c21.333 0 39.666 -6.66699 54.999 -20s23 -37 23 -71
c0 -14.667 -0.833008 -28.334 -2.5 -41.001s-5 -24.167 -10 -34.5s-11.667 -18.833 -20 -25.5s-19.5 -11.334 -33.5 -14.001l-87 -16v44zM147.999 1094c6.66699 0 12.668 0.666992 18.001 2s9.66602 2.66602 12.999 3.99902v7c0 16.667 -3.33301 28.834 -10 36.501
s-15 11.5 -25 11.5c-11.333 0 -19.833 -3.33301 -25.5 -10s-8.5 -14 -8.5 -22c0 -12 4.66699 -19.833 14 -23.5s17.333 -5.5 24 -5.5z" />
    <glyph glyph-name="shaddehkasra" unicode="&#x650;&#x651;" arabic-form="isolated" 
d="M284 858l-240 -43v48l240 44v-49zM223 926c-9.33301 0 -19.166 1.83203 -29.499 5.49902s-19.5 11.167 -27.5 22.5c-8.66699 -12.667 -18.834 -20.5 -30.501 -23.5s-21.167 -4.5 -28.5 -4.5c-48 0 -72 27.667 -72 83v51h50v-45c0 -26.667 8.66699 -40 26 -40
c7.33301 0 14 2.33301 20 7s9 15.334 9 32.001v46h50v-45c0 -16 3.16699 -26.333 9.5 -31s12.5 -7 18.5 -7c10.667 0 17.5 3 20.5 9s4.5 14.667 4.5 26v48h50v-51c0 -55.333 -23.333 -83 -70 -83z" />
    <glyph glyph-name="lammeeminitial" unicode="&#xfedf;&#xfee4;" horiz-adv-x="858" arabic-form="initial" 
d="M500 216c0 -33.333 -7.33398 -64.667 -22.001 -94c12 -3.33301 25.333 -5 40 -5h57v-117h-19c-28.667 0 -52.5 4.16699 -71.5 12.5s-37.167 23.5 -54.5 45.5c-19.333 -18 -41.666 -32.167 -66.999 -42.5s-52.333 -15.5 -81 -15.5h-291v117h66v99
c0 30 5.66699 58.333 17 85s27 50 47 70s43.167 36 69.5 48s54.5 18 84.5 18s58.5 -6 85.5 -18s50.833 -28 71.5 -48s37.167 -43.333 49.5 -70s18.5 -55 18.5 -85zM375.999 224.999c0 26 -9.00195 48.002 -27.002 66.002s-40 27 -66 27c-12.667 0 -24.667 -2.33301 -36 -7
s-21.166 -11.334 -29.499 -20.001s-15 -18.667 -20 -30s-7.5 -23.333 -7.5 -36v-108h93c12.667 0 24.667 3.16699 36 9.5s21.333 14.666 30 24.999s15.334 22 20.001 35s7 25.833 7 38.5zM558.997 117.001l22.999 -0.00195312c30.667 0 52.834 5.16699 66.501 15.5
s20.5 28.833 20.5 55.5v603h129v-604c0 -33.333 -5 -61.666 -15 -84.999s-23.333 -42.666 -40 -57.999s-35.667 -26.5 -57 -33.5s-43.333 -10.5 -66 -10.5h-61v117z" />
    <glyph glyph-name="aleffathatanfina" unicode="&#xfe8e;&#x64b;" horiz-adv-x="290" arabic-form="final" 
d="M299 0l-61.001 0.00195312c-22.667 0 -44.667 3.5 -66 10.5s-40.333 18.167 -57 33.5s-30 34.666 -40 57.999s-15 51.666 -15 84.999v604h129v-603c0 -26.667 6.83301 -45.167 20.5 -55.5s35.834 -15.5 66.501 -15.5h23v-117zM245.999 858.002l-240 -43v48l240 44v-49z
M245.999 939.002l-240 -43v48l240 44v-49z" />
    <glyph glyph-name="aleffathataniso" unicode="&#x627;&#x64b;" horiz-adv-x="249" arabic-form="isolated" 
d="M60 0v791h129v-791h-129zM246 939l-240 -43v48l240 44v-49zM246 858l-240 -43v48l240 44v-49z" />
    <glyph glyph-name="lilah" unicode="&#xfedf;&#xfee0;&#x651;&#x670;&#xfeea;" horiz-adv-x="1181" arabic-form="isolated" 
d="M0 212c0 30 5.83203 58.1689 17.499 84.502s27.334 49.166 47.001 68.499s42.667 34.666 69 45.999s54.5 17 84.5 17h225v-216c0 -4 -0.166992 -7.83301 -0.5 -11.5s-0.5 -7.16699 -0.5 -10.5c0 -12.667 -0.5 -23.667 -1.5 -33s-0.5 -17 1.5 -23
s6.16699 -10.333 12.5 -13s16.5 -4 30.5 -4h56v-117h-67c-25.333 0 -46.5 5 -63.5 15s-30.5 21 -40.5 33c-19.333 -18 -41.333 -32 -66 -42s-51 -15 -79 -15c-30 0 -58.5 6 -85.5 18s-50.833 28 -71.5 48s-37.167 43.333 -49.5 70s-18.5 55 -18.5 85zM123.999 203.002
c0 -26 9.00195 -48.001 27.002 -66.001s40 -27 66 -27c12.667 0 24.667 2.33301 36 7s21.166 11.334 29.499 20.001s15 18.5 20 29.5s7.5 23.167 7.5 36.5v107h-93c-13.333 0 -25.5 -3.16699 -36.5 -9.5s-20.833 -14.666 -29.5 -24.999s-15.334 -21.833 -20.001 -34.5
s-7 -25.334 -7 -38.001zM520.001 117.001l30 -0.000976562c30 0 52 5.33301 66 16s21 29.334 21 56.001v602h132v-598c0 -26.667 5.5 -46 16.5 -58s30.833 -18 59.5 -18h57v-117h-19c-32.667 0 -59.5 5.66699 -80.5 17s-41.167 32 -60.5 62
c-12.667 -26.667 -31.667 -46.5 -57 -59.5s-55 -19.5 -89 -19.5h-76v117zM882.001 117l22.999 -0.00195312c30.667 0 52.834 5.16699 66.501 15.5s20.5 28.833 20.5 55.5v603h129v-604c0 -33.333 -5 -61.666 -15 -84.999s-23.333 -42.666 -40 -57.999
s-35.667 -26.5 -57 -33.5s-43.333 -10.5 -66 -10.5h-61v117z" />
    <glyph glyph-name="lamalefmaddaaboveiso" unicode="&#xfedf;&#xfe82;" horiz-adv-x="671" arabic-form="isolated" 
d="M30 117l192.999 -0.00195312v393h129v-393h43c30.667 0 52.834 5.16699 66.501 15.5s20.5 28.833 20.5 55.5v603h129v-604c0 -33.333 -5 -61.666 -15 -84.999s-23.333 -42.666 -40 -57.999s-35.667 -26.5 -57 -33.5s-43.333 -10.5 -66 -10.5h-403v117zM72.999 618.998
c17.333 16.667 34.5 28.665 51.5 35.998s34.5 11 52.5 11c12 0 24.5 -2 37.5 -6l39.5 -12.5l40 -12.5c13.333 -4 26 -6 38 -6c13.333 0 25.333 3.5 36 10.5s18 19.5 22 37.5l60 -21c-11.333 -36 -26.333 -61.667 -45 -77s-41 -23 -67 -23
c-11.333 0 -23.833 1.83301 -37.5 5.5s-27.667 7.83398 -42 12.501s-28.333 8.83398 -42 12.501s-26.167 5.5 -37.5 5.5c-10.667 0 -21.167 -1.83301 -31.5 -5.5s-20.833 -10.167 -31.5 -19.5z" />
    <glyph glyph-name="lamalefmaddaabovefina" unicode="&#xfee0;&#xfe82;" horiz-adv-x="738" arabic-form="final" 
d="M30 117l193 -0.000976562v393h129v-393h43c30 0 52 5.33301 66 16s21 29.334 21 56.001v602h132v-598c0 -26.667 5.5 -46 16.5 -58s30.833 -18 59.5 -18h57v-117h-19c-32.667 0 -59.5 5.66699 -80.5 17s-41.167 32 -60.5 62c-12.667 -26.667 -31.667 -46.5 -57 -59.5
s-55 -19.5 -89 -19.5h-411v117zM74 618.999c17.333 16.667 34.5 28.665 51.5 35.998s34.5 11 52.5 11c12 0 24.5 -2 37.5 -6l39.5 -12.5l40 -12.5c13.333 -4 26 -6 38 -6c13.333 0 25.333 3.5 36 10.5s18 19.5 22 37.5l60 -21c-11.333 -36 -26.333 -61.667 -45 -77
s-41 -23 -67 -23c-11.333 0 -23.833 1.83301 -37.5 5.5s-27.667 7.83398 -42 12.501s-28.333 8.83398 -42 12.501s-26.167 5.5 -37.5 5.5c-10.667 0 -21.167 -1.83301 -31.5 -5.5s-20.833 -10.167 -31.5 -19.5z" />
    <glyph glyph-name="lamalefhamzaaboveiso" unicode="&#xfedf;&#xfe84;" horiz-adv-x="671" arabic-form="isolated" 
d="M30 117l192.999 -0.00195312v393h129v-393h43c30.667 0 52.834 5.16699 66.501 15.5s20.5 28.833 20.5 55.5v603h129v-604c0 -33.333 -5 -61.666 -15 -84.999s-23.333 -42.666 -40 -57.999s-35.667 -26.5 -57 -33.5s-43.333 -10.5 -66 -10.5h-403v117zM372.999 569.998
h-183.999v61h41c-8.66699 14 -13 27.333 -13 40c0 11.333 2.5 22.5 7.5 33.5s11.833 20.667 20.5 29s18.667 15 30 20s23.333 7.5 36 7.5h55v-67h-40c-12.667 0 -21.834 -3 -27.501 -9s-8.5 -13.333 -8.5 -22s2.83301 -16.167 8.5 -22.5s16.5 -9.5 32.5 -9.5h42v-61z" />
    <glyph glyph-name="lamalefhamzaabovefina" unicode="&#xfee0;&#xfe84;" horiz-adv-x="738" arabic-form="final" 
d="M30 117l193 -0.000976562v393h129v-393h43c30 0 52 5.33301 66 16s21 29.334 21 56.001v602h132v-598c0 -26.667 5.5 -46 16.5 -58s30.833 -18 59.5 -18h57v-117h-19c-32.667 0 -59.5 5.66699 -80.5 17s-41.167 32 -60.5 62c-12.667 -26.667 -31.667 -46.5 -57 -59.5
s-55 -19.5 -89 -19.5h-411v117zM373 569.999h-183.999v61h41c-8.66699 14 -13 27.333 -13 40c0 11.333 2.5 22.5 7.5 33.5s11.833 20.667 20.5 29s18.667 15 30 20s23.333 7.5 36 7.5h55v-67h-40c-12.667 0 -21.834 -3 -27.501 -9s-8.5 -13.333 -8.5 -22
s2.83301 -16.167 8.5 -22.5s16.5 -9.5 32.5 -9.5h42v-61z" />
    <glyph glyph-name="lamalefhamzabelowiso" unicode="&#xfedf;&#xfe88;" horiz-adv-x="671" arabic-form="isolated" 
d="M30 117l192.999 -0.00195312v393h129v-393h43c30.667 0 52.834 5.16699 66.501 15.5s20.5 28.833 20.5 55.5v603h129v-604c0 -33.333 -5 -61.666 -15 -84.999s-23.333 -42.666 -40 -57.999s-35.667 -26.5 -57 -33.5s-43.333 -10.5 -66 -10.5h-403v117zM359.999 -234.002
h-183.999v61h41c-8.66699 14 -13 27.333 -13 40c0 11.333 2.5 22.5 7.5 33.5s11.833 20.667 20.5 29s18.667 15 30 20s23.333 7.5 36 7.5h55v-67h-40c-12.667 0 -21.834 -3 -27.501 -9s-8.5 -13.333 -8.5 -22s2.83301 -16.167 8.5 -22.5s16.5 -9.5 32.5 -9.5h42v-61z" />
    <glyph glyph-name="lamalefhamzabelowfina" unicode="&#xfee0;&#xfe88;" horiz-adv-x="738" arabic-form="final" 
d="M30 117l193 -0.000976562v393h129v-393h43c30 0 52 5.33301 66 16s21 29.334 21 56.001v602h132v-598c0 -26.667 5.5 -46 16.5 -58s30.833 -18 59.5 -18h57v-117h-19c-32.667 0 -59.5 5.66699 -80.5 17s-41.167 32 -60.5 62c-12.667 -26.667 -31.667 -46.5 -57 -59.5
s-55 -19.5 -89 -19.5h-411v117zM368 -234.001h-183.999v61h41c-8.66699 14 -13 27.333 -13 40c0 11.333 2.5 22.5 7.5 33.5s11.833 20.667 20.5 29s18.667 15 30 20s23.333 7.5 36 7.5h55v-67h-40c-12.667 0 -21.834 -3 -27.501 -9s-8.5 -13.333 -8.5 -22
s2.83301 -16.167 8.5 -22.5s16.5 -9.5 32.5 -9.5h42v-61z" />
    <glyph glyph-name="lamalefiso" unicode="&#xfedf;&#xfe8e;" horiz-adv-x="671" arabic-form="isolated" 
d="M30 117l192.999 -0.00195312v393h129v-393h43c30.667 0 52.834 5.16699 66.501 15.5s20.5 28.833 20.5 55.5v603h129v-604c0 -33.333 -5 -61.666 -15 -84.999s-23.333 -42.666 -40 -57.999s-35.667 -26.5 -57 -33.5s-43.333 -10.5 -66 -10.5h-403v117z" />
    <glyph glyph-name="lamaleffina" unicode="&#xfee0;&#xfe8e;" horiz-adv-x="738" arabic-form="final" 
d="M30 117l193 -0.000976562v393h129v-393h43c30 0 52 5.33301 66 16s21 29.334 21 56.001v602h132v-598c0 -26.667 5.5 -46 16.5 -58s30.833 -18 59.5 -18h57v-117h-19c-32.667 0 -59.5 5.66699 -80.5 17s-41.167 32 -60.5 62c-12.667 -26.667 -31.667 -46.5 -57 -59.5
s-55 -19.5 -89 -19.5h-411v117z" />
    <glyph glyph-name="shaddahfathatan" unicode="&#x64b;&#x651;" 
d="M188 813c-9.33301 0 -19.166 1.83203 -29.499 5.49902s-19.5 11.167 -27.5 22.5c-8.66699 -12.667 -18.834 -20.5 -30.501 -23.5s-21.167 -4.5 -28.5 -4.5c-48 0 -72 27.667 -72 83v51h50v-45c0 -26.667 8.66699 -40 26 -40c7.33301 0 14 2.33301 20 7s9 15.334 9 32.001
v46h50v-45c0 -16 3.16699 -26.333 9.5 -31s12.5 -7 18.5 -7c10.667 0 17.5 3 20.5 9s4.5 14.667 4.5 26v48h50v-51c0 -55.333 -23.333 -83 -70 -83z" />
    <glyph glyph-name="hamza" unicode="&#x621;" horiz-adv-x="432" arabic-form="isolated" 
d="M372.5 0.804688h-321.999v106.988h71.75c-15.167 24.5547 -22.75 47.9404 -22.75 70.1562c0 19.8779 4.375 39.4629 13.125 58.7559s20.708 36.2471 35.875 50.8633s32.667 26.3086 52.5 35.0781s40.833 13.1543 63 13.1543h96.25v-117.512h-70
c-22.167 0 -38.209 -5.26172 -48.126 -15.7852s-14.875 -23.3857 -14.875 -38.5859s4.95801 -28.3545 14.875 -39.4629s28.875 -16.6621 56.875 -16.6621h73.5v-106.988z" />
    <glyph glyph-name="alefmaddaaboveiso" unicode="&#x622;" horiz-adv-x="249" arabic-form="isolated" 
d="M60 0v791h129v-791h-129zM-74 905c17.333 16.667 34.5 28.665 51.5 35.998s34.5 11 52.5 11c12 0 24.5 -2 37.5 -6l39.5 -12.5l40 -12.5c13.333 -4 26 -6 38 -6c13.333 0 25.333 3.5 36 10.5s18 19.5 22 37.5l60 -21c-11.333 -36 -26.333 -61.667 -45 -77
s-41 -23 -67 -23c-11.333 0 -23.833 1.83301 -37.5 5.5s-27.667 7.83398 -42 12.501s-28.333 8.83398 -42 12.501s-26.167 5.5 -37.5 5.5c-10.667 0 -21.167 -1.83301 -31.5 -5.5s-20.833 -10.167 -31.5 -19.5z" />
    <glyph glyph-name="alefhamzaaboveiso" unicode="&#x623;" horiz-adv-x="249" arabic-form="isolated" 
d="M60 0v791h129v-791h-129zM210 846h-183.999v61h41c-8.66699 14 -13 27.333 -13 40c0 11.333 2.5 22.5 7.5 33.5s11.833 20.667 20.5 29s18.667 15 30 20s23.333 7.5 36 7.5h55v-67h-40c-12.667 0 -21.834 -3 -27.501 -9s-8.5 -13.333 -8.5 -22s2.83301 -16.167 8.5 -22.5
s16.5 -9.5 32.5 -9.5h42v-61z" />
    <glyph glyph-name="wawhamzaiso" unicode="&#x624;" horiz-adv-x="523" arabic-form="isolated" 
d="M25 216c0 30 6.16797 58.335 18.501 85.002s28.833 50 49.5 70s44.5 36 71.5 48s55.5 18 85.5 18s58.167 -6 84.5 -18s49.5 -28 69.5 -48s35.667 -43.333 47 -70s17 -55 17 -85v-216c0 -73.333 -27.667 -126.5 -83 -159.5s-133.333 -49.5 -234 -49.5h-31v117h23
c34.667 0 64 1.66699 88 5s43.5 8.66602 58.5 15.999s26 16.833 33 28.5s10.833 25.834 11.5 42.501h-91c-30 0 -58.167 5.66699 -84.5 17s-49.333 26.666 -69 45.999s-35.334 42.166 -47.001 68.499s-17.5 54.5 -17.5 84.5zM149.001 225.002
c0 -12.667 2.33105 -25.502 6.99805 -38.502s11.334 -24.667 20.001 -35s18.5 -18.666 29.5 -24.999s23.167 -9.5 36.5 -9.5h93v108c0 12.667 -2.5 24.667 -7.5 36s-11.667 21.333 -20 30s-18.166 15.334 -29.499 20.001s-23.333 7 -36 7c-26 0 -48 -9 -66 -27
s-27 -40 -27 -66zM369.094 495.858l-212.997 0.00195312v70.5801h47.4609c-10.0322 16.1982 -15.0488 31.626 -15.0488 46.2822c0 13.1123 2.89453 26.0322 8.68262 38.7598s13.6982 23.9121 23.7305 33.5537s21.6084 17.3555 34.7275 23.1406
s27.0107 8.67773 41.6738 8.67773h63.667v-77.5215h-46.3037c-14.6631 0 -25.2744 -3.4707 -31.834 -10.4131s-9.83887 -15.4277 -9.83887 -25.4561s3.2793 -18.7061 9.83887 -26.0332c6.55957 -7.32812 19.1006 -10.9922 37.6221 -10.9922h48.6191v-70.5801z" />
    <glyph glyph-name="alefhamzabelowiso" unicode="&#x625;" horiz-adv-x="249" arabic-form="isolated" 
d="M60 0v791h129v-791h-129zM206 -234h-183.999v61h41c-8.66699 14 -13 27.333 -13 40c0 11.333 2.5 22.5 7.5 33.5s11.833 20.667 20.5 29s18.667 15 30 20s23.333 7.5 36 7.5h55v-67h-40c-12.667 0 -21.834 -3 -27.501 -9s-8.5 -13.333 -8.5 -22
s2.83301 -16.167 8.5 -22.5s16.5 -9.5 32.5 -9.5h42v-61z" />
    <glyph glyph-name="hamzakirsehiso" unicode="&#x626;" horiz-adv-x="736" arabic-form="isolated" 
d="M685 10c0.666992 -30 -4.66211 -58.333 -15.9951 -85s-27 -50 -47 -70s-43.333 -36 -70 -48s-55 -18 -85 -18h-249c-30 0 -58.167 6 -84.5 18s-49.5 28 -69.5 48s-35.667 43.333 -47 70s-17 55 -17 85v266h133v-275c0 -13.333 2.5 -25.666 7.5 -36.999
s11.667 -21.333 20 -30s18.166 -15.5 29.499 -20.5s23.333 -7.5 36 -7.5h233c12.667 0 24.667 2.5 36 7.5s21.166 11.833 29.499 20.5s15 18.667 20 30s7.5 23.666 7.5 36.999v24c0 11.333 -4 21.166 -12 29.499s-21.667 14.5 -41 18.5c-40 8.66699 -73 20.834 -99 36.501
s-46.833 33 -62.5 52s-26.5 38.5 -32.5 58.5s-9 38.667 -9 56c0 22 4.66699 42.833 14 62.5s22.166 36.667 38.499 51s35.666 25.833 57.999 34.5s46.833 13 73.5 13c34.667 0 64 -4.83301 88 -14.5s43.5 -21.834 58.5 -36.501s26.167 -30.167 33.5 -46.5
s11.666 -31.166 12.999 -44.499l-111 -25c-1.33301 7.33301 -3.5 14.833 -6.5 22.5s-7.83301 14.834 -14.5 21.501s-14.834 12 -24.501 16s-21.5 6 -35.5 6c-17.333 0 -32.166 -4.66699 -44.499 -14s-18.5 -21 -18.5 -35c0 -6 1 -13.5 3 -22.5s6.83301 -18.333 14.5 -28
s19.167 -18.834 34.5 -27.501s36.333 -16 63 -22c48.667 -10 86.167 -28.667 112.5 -56s39.5 -59 39.5 -95v-26zM217.099 339.858l-212.997 0.00195312v70.5801h47.4609c-10.0322 16.1982 -15.0488 31.626 -15.0488 46.2822c0 13.1123 2.89453 26.0322 8.68262 38.7598
s13.6982 23.9121 23.7305 33.5537s21.6084 17.3555 34.7275 23.1406s27.0107 8.67773 41.6738 8.67773h63.667v-77.5215h-46.3037c-14.6631 0 -25.2744 -3.4707 -31.834 -10.4131s-9.83887 -15.4277 -9.83887 -25.4561s3.2793 -18.7061 9.83887 -26.0332
c6.55957 -7.32812 19.1006 -10.9922 37.6221 -10.9922h48.6191v-70.5801z" />
    <glyph glyph-name="alefiso" unicode="&#x627;" horiz-adv-x="249" arabic-form="isolated" 
d="M60 0v791h129v-791h-129z" />
    <glyph glyph-name="behiso" unicode="&#x628;" horiz-adv-x="860" arabic-form="isolated" 
d="M584 117c30.667 0 52.832 5.16699 66.499 15.5s20.5 28.833 20.5 55.5v189h129v-190c0 -33.333 -5 -61.666 -15 -84.999s-23.333 -42.666 -40 -57.999s-35.667 -26.5 -57 -33.5s-43.333 -10.5 -66 -10.5h-444c-22.667 0 -44.667 3.5 -66 10.5s-40.333 18.167 -57 33.5
s-30 34.666 -40 57.999s-15 51.666 -15 84.999v190h129v-189c0 -26.667 6.83301 -45.167 20.5 -55.5s35.834 -15.5 66.501 -15.5h368v0zM338.998 -137c0 20.667 7.16699 38.334 21.5 53.001s31.833 22 52.5 22s38.167 -7.33301 52.5 -22s21.5 -32.334 21.5 -53.001
c0 -20 -7.16699 -37.167 -21.5 -51.5s-31.833 -21.5 -52.5 -21.5s-38.167 7.16699 -52.5 21.5s-21.5 31.5 -21.5 51.5z" />
    <glyph glyph-name="tehmarboutaiso" unicode="&#x629;" horiz-adv-x="493" arabic-form="isolated" 
d="M0 212c0 30 5.83203 58.1689 17.499 84.502s27.334 49.166 47.001 68.499s42.667 34.666 69 45.999s54.5 17 84.5 17h225v-216c0 -30 -5.66699 -58.333 -17 -85s-27 -50 -47 -70s-43.167 -36 -69.5 -48s-54.5 -18 -84.5 -18s-58.5 6 -85.5 18s-50.833 28 -71.5 48
s-37.167 43.333 -49.5 70s-18.5 55 -18.5 85zM123.999 203.002c0 -26 9.00195 -48.001 27.002 -66.001s40 -27 66 -27c12.667 0 24.667 2.33301 36 7s21.166 11.334 29.499 20.001s15 18.5 20 29.5s7.5 23.167 7.5 36.5v107h-93c-13.333 0 -25.5 -3.16699 -36.5 -9.5
s-20.833 -14.666 -29.5 -24.999s-15.334 -21.833 -20.001 -34.5s-7 -25.334 -7 -38.001zM75.001 577.001c0 20.667 7.16699 38.334 21.5 53.001s31.833 22 52.5 22s38.167 -7.33301 52.5 -22s21.5 -32.334 21.5 -53.001c0 -20 -7.16699 -37.167 -21.5 -51.5
s-31.833 -21.5 -52.5 -21.5s-38.167 7.16699 -52.5 21.5s-21.5 31.5 -21.5 51.5zM240.001 577.001c0 20.667 7.16699 38.334 21.5 53.001s31.833 22 52.5 22s38.167 -7.33301 52.5 -22s21.5 -32.334 21.5 -53.001c0 -20 -7.16699 -37.167 -21.5 -51.5
s-31.833 -21.5 -52.5 -21.5s-38.167 7.16699 -52.5 21.5s-21.5 31.5 -21.5 51.5z" />
    <glyph glyph-name="taiso" unicode="&#x62a;" horiz-adv-x="860" arabic-form="isolated" 
d="M584 117c30.667 0 52.832 5.16699 66.499 15.5s20.5 28.833 20.5 55.5v189h129v-190c0 -33.333 -5 -61.666 -15 -84.999s-23.333 -42.666 -40 -57.999s-35.667 -26.5 -57 -33.5s-43.333 -10.5 -66 -10.5h-444c-22.667 0 -44.667 3.5 -66 10.5s-40.333 18.167 -57 33.5
s-30 34.666 -40 57.999s-15 51.666 -15 84.999v190h129v-189c0 -26.667 6.83301 -45.167 20.5 -55.5s35.834 -15.5 66.501 -15.5h368v0zM250.998 577c0 20.667 7.16699 38.334 21.5 53.001s31.833 22 52.5 22s38.167 -7.33301 52.5 -22s21.5 -32.334 21.5 -53.001
c0 -20 -7.16699 -37.167 -21.5 -51.5s-31.833 -21.5 -52.5 -21.5s-38.167 7.16699 -52.5 21.5s-21.5 31.5 -21.5 51.5zM415.998 577c0 20.667 7.16699 38.334 21.5 53.001s31.833 22 52.5 22s38.167 -7.33301 52.5 -22s21.5 -32.334 21.5 -53.001
c0 -20 -7.16699 -37.167 -21.5 -51.5s-31.833 -21.5 -52.5 -21.5s-38.167 7.16699 -52.5 21.5s-21.5 31.5 -21.5 51.5z" />
    <glyph glyph-name="thaiso" unicode="&#x62b;" horiz-adv-x="860" arabic-form="isolated" 
d="M584 117c30.667 0 52.832 5.16699 66.499 15.5s20.5 28.833 20.5 55.5v189h129v-190c0 -33.333 -5 -61.666 -15 -84.999s-23.333 -42.666 -40 -57.999s-35.667 -26.5 -57 -33.5s-43.333 -10.5 -66 -10.5h-444c-22.667 0 -44.667 3.5 -66 10.5s-40.333 18.167 -57 33.5
s-30 34.666 -40 57.999s-15 51.666 -15 84.999v190h129v-189c0 -26.667 6.83301 -45.167 20.5 -55.5s35.834 -15.5 66.501 -15.5h368v0zM249.998 578c0 20.667 7.16699 38.334 21.5 53.001s31.833 22 52.5 22s38.167 -7.33301 52.5 -22s21.5 -32.334 21.5 -53.001
c0 -20 -7.16699 -37.167 -21.5 -51.5s-31.833 -21.5 -52.5 -21.5s-38.167 7.16699 -52.5 21.5s-21.5 31.5 -21.5 51.5zM414.998 578c0 20.667 7.16699 38.334 21.5 53.001s31.833 22 52.5 22s38.167 -7.33301 52.5 -22s21.5 -32.334 21.5 -53.001
c0 -20 -7.16699 -37.167 -21.5 -51.5s-31.833 -21.5 -52.5 -21.5s-38.167 7.16699 -52.5 21.5s-21.5 31.5 -21.5 51.5zM330.998 725c0 20.667 7.16699 38.334 21.5 53.001s31.833 22 52.5 22s38.167 -7.33301 52.5 -22s21.5 -32.334 21.5 -53.001
c0 -20 -7.16699 -37.167 -21.5 -51.5s-31.833 -21.5 -52.5 -21.5s-38.167 7.16699 -52.5 21.5s-21.5 31.5 -21.5 51.5z" />
    <glyph glyph-name="jeemiso" unicode="&#x62c;" horiz-adv-x="621" arabic-form="isolated" 
d="M304 117l133.999 -0.000976562v108c0 12.667 -2.5 24.667 -7.5 36s-11.667 21.333 -20 30s-18.166 15.334 -29.499 20.001s-23.333 7 -36 7h-184l-1 110h193c30 0 58.167 -5.5 84.5 -16.5s49.5 -26 69.5 -45s35.667 -41.333 47 -67s17 -53.5 17 -83.5v-216h-267v117z
M303.999 -0.000976562l-66 0.000976562c-13.333 -0 -25.5 -3.16699 -36.5 -9.5s-20.833 -14.666 -29.5 -24.999s-15.334 -22 -20.001 -35s-7 -25.833 -7 -38.5c0 -26 9 -48 27 -66s40 -27 66 -27h172l-1 -110h-163c-30 0 -58.5 5.5 -85.5 16.5s-50.833 26 -71.5 45
s-37.167 41.333 -49.5 67s-18.5 53.5 -18.5 83.5s5.83301 58.167 17.5 84.5s27.334 49.166 47.001 68.499s42.667 34.666 69 45.999s54.5 17 84.5 17h65v-117zM429.999 -137c0 20.667 7.16699 38.334 21.5 53.001s31.833 22 52.5 22s38.167 -7.33301 52.5 -22
s21.5 -32.334 21.5 -53.001c0 -20 -7.16699 -37.167 -21.5 -51.5s-31.833 -21.5 -52.5 -21.5s-38.167 7.16699 -52.5 21.5s-21.5 31.5 -21.5 51.5z" />
    <glyph glyph-name="haaiso" unicode="&#x62d;" horiz-adv-x="621" arabic-form="isolated" 
d="M304 117l133.999 -0.000976562v108c0 12.667 -2.5 24.667 -7.5 36s-11.667 21.333 -20 30s-18.166 15.334 -29.499 20.001s-23.333 7 -36 7h-184l-1 110h193c30 0 58.167 -5.5 84.5 -16.5s49.5 -26 69.5 -45s35.667 -41.333 47 -67s17 -53.5 17 -83.5v-216h-267v117z
M303.999 -0.000976562l-66 0.000976562c-13.333 -0 -25.5 -3.16699 -36.5 -9.5s-20.833 -14.666 -29.5 -24.999s-15.334 -22 -20.001 -35s-7 -25.833 -7 -38.5c0 -26 9 -48 27 -66s40 -27 66 -27h172l-1 -110h-163c-30 0 -58.5 5.5 -85.5 16.5s-50.833 26 -71.5 45
s-37.167 41.333 -49.5 67s-18.5 53.5 -18.5 83.5s5.83301 58.167 17.5 84.5s27.334 49.166 47.001 68.499s42.667 34.666 69 45.999s54.5 17 84.5 17h65v-117z" />
    <glyph glyph-name="khaiso" unicode="&#x62e;" horiz-adv-x="621" arabic-form="isolated" 
d="M304 117l133.999 -0.000976562v108c0 12.667 -2.5 24.667 -7.5 36s-11.667 21.333 -20 30s-18.166 15.334 -29.499 20.001s-23.333 7 -36 7h-184l-1 110h193c30 0 58.167 -5.5 84.5 -16.5s49.5 -26 69.5 -45s35.667 -41.333 47 -67s17 -53.5 17 -83.5v-216h-267v117z
M303.999 -0.000976562l-66 0.000976562c-13.333 -0 -25.5 -3.16699 -36.5 -9.5s-20.833 -14.666 -29.5 -24.999s-15.334 -22 -20.001 -35s-7 -25.833 -7 -38.5c0 -26 9 -48 27 -66s40 -27 66 -27h172l-1 -110h-163c-30 0 -58.5 5.5 -85.5 16.5s-50.833 26 -71.5 45
s-37.167 41.333 -49.5 67s-18.5 53.5 -18.5 83.5s5.83301 58.167 17.5 84.5s27.334 49.166 47.001 68.499s42.667 34.666 69 45.999s54.5 17 84.5 17h65v-117zM266.999 577c0 20.667 7.16699 38.334 21.5 53.001s31.833 22 52.5 22s38.167 -7.33301 52.5 -22
s21.5 -32.334 21.5 -53.001c0 -20 -7.16699 -37.167 -21.5 -51.5s-31.833 -21.5 -52.5 -21.5s-38.167 7.16699 -52.5 21.5s-21.5 31.5 -21.5 51.5z" />
    <glyph glyph-name="daliso" unicode="&#x62f;" horiz-adv-x="476" arabic-form="isolated" 
d="M20 117l272.999 -0.000976562v108c0 12.667 -2.5 24.667 -7.5 36s-11.667 21.333 -20 30s-18.166 15.334 -29.499 20.001s-23.333 7 -36 7h-112l-1 110h121c30 0 58.167 -5.5 84.5 -16.5s49.5 -26 69.5 -45s35.667 -41.333 47 -67s17 -53.5 17 -83.5v-216h-406v117z" />
    <glyph glyph-name="zaliso" unicode="&#x630;" horiz-adv-x="476" arabic-form="isolated" 
d="M20 117l272.999 -0.000976562v108c0 12.667 -2.5 24.667 -7.5 36s-11.667 21.333 -20 30s-18.166 15.334 -29.499 20.001s-23.333 7 -36 7h-112l-1 110h121c30 0 58.167 -5.5 84.5 -16.5s49.5 -26 69.5 -45s35.667 -41.333 47 -67s17 -53.5 17 -83.5v-216h-406v117z
M131.999 576.999c0 20.667 7.16699 38.334 21.5 53.001s31.833 22 52.5 22s38.167 -7.33301 52.5 -22s21.5 -32.334 21.5 -53.001c0 -20 -7.16699 -37.167 -21.5 -51.5s-31.833 -21.5 -52.5 -21.5s-38.167 7.16699 -52.5 21.5s-21.5 31.5 -21.5 51.5z" />
    <glyph glyph-name="raiso" unicode="&#x631;" horiz-adv-x="334" arabic-form="isolated" 
d="M85 -211c-19.333 0 -35.834 1.5 -49.501 4.5s-22.167 5.16699 -25.5 6.5v111c4.66699 -1.33301 10.334 -2.5 17.001 -3.5s14.667 -1.5 24 -1.5h35c20 0 34.167 5.16699 42.5 15.5s12.5 24.5 12.5 42.5v413h133v-426c0 -24 -3.5 -45.833 -10.5 -65.5
s-17.167 -36.667 -30.5 -51s-29.5 -25.5 -48.5 -33.5s-40.5 -12 -64.5 -12h-35z" />
    <glyph glyph-name="zaiso" unicode="&#x632;" horiz-adv-x="334" arabic-form="isolated" 
d="M85 -211c-19.333 0 -35.834 1.5 -49.501 4.5s-22.167 5.16699 -25.5 6.5v111c4.66699 -1.33301 10.334 -2.5 17.001 -3.5s14.667 -1.5 24 -1.5h35c20 0 34.167 5.16699 42.5 15.5s12.5 24.5 12.5 42.5v413h133v-426c0 -24 -3.5 -45.833 -10.5 -65.5
s-17.167 -36.667 -30.5 -51s-29.5 -25.5 -48.5 -33.5s-40.5 -12 -64.5 -12h-35zM129.999 577c0 20.667 7.16699 38.334 21.5 53.001s31.833 22 52.5 22s38.167 -7.33301 52.5 -22s21.5 -32.334 21.5 -53.001c0 -20 -7.16699 -37.167 -21.5 -51.5s-31.833 -21.5 -52.5 -21.5
s-38.167 7.16699 -52.5 21.5s-21.5 31.5 -21.5 51.5z" />
    <glyph glyph-name="seeniso" unicode="&#x633;" horiz-adv-x="1207" arabic-form="isolated" 
d="M334 -94c12.667 0 24.6689 2.49707 36.002 7.49707s21.166 11.833 29.499 20.5s15 18.667 20 30s7.5 23.666 7.5 36.999v376h133v-184c0 -26.667 5.5 -46 16.5 -58s30.833 -18 59.5 -18c30 0 52 5.33301 66 16s21 29.334 21 56.001v188h132v-184
c0 -26.667 5.5 -46 16.5 -58s30.833 -18 59.5 -18c30.667 0 52.834 5.16699 66.501 15.5s20.5 28.833 20.5 55.5v189h129v-190c0 -33.333 -5 -61.666 -15 -84.999s-23.333 -42.666 -40 -57.999s-35.667 -26.5 -57 -33.5s-43.333 -10.5 -66 -10.5
c-32.667 0 -59.5 5.66699 -80.5 17s-41.167 32 -60.5 62c-12.667 -26.667 -32.334 -46.5 -59.001 -59.5s-57 -19.5 -91 -19.5c-25.333 0 -47.333 3.16699 -66 9.5s-36 17.833 -52 34.5v-34c0 -30 -5.66699 -58.333 -17 -85s-27 -50 -47 -70s-43.167 -36 -69.5 -48
s-54.5 -18 -84.5 -18h-124c-30 0 -58.167 6 -84.5 18s-49.5 28 -69.5 48s-35.667 43.333 -47 70s-17 55 -17 85v266h133v-275c0 -13.333 2.5 -25.666 7.5 -36.999s11.667 -21.333 20 -30s18.166 -15.5 29.499 -20.5s23.333 -7.5 36 -7.5h108v0z" />
    <glyph glyph-name="sheeniso" unicode="&#x634;" horiz-adv-x="1207" arabic-form="isolated" 
d="M334 -94c12.667 0 24.6689 2.49707 36.002 7.49707s21.166 11.833 29.499 20.5s15 18.667 20 30s7.5 23.666 7.5 36.999v376h133v-184c0 -26.667 5.5 -46 16.5 -58s30.833 -18 59.5 -18c30 0 52 5.33301 66 16s21 29.334 21 56.001v188h132v-184
c0 -26.667 5.5 -46 16.5 -58s30.833 -18 59.5 -18c30.667 0 52.834 5.16699 66.501 15.5s20.5 28.833 20.5 55.5v189h129v-190c0 -33.333 -5 -61.666 -15 -84.999s-23.333 -42.666 -40 -57.999s-35.667 -26.5 -57 -33.5s-43.333 -10.5 -66 -10.5
c-32.667 0 -59.5 5.66699 -80.5 17s-41.167 32 -60.5 62c-12.667 -26.667 -32.334 -46.5 -59.001 -59.5s-57 -19.5 -91 -19.5c-25.333 0 -47.333 3.16699 -66 9.5s-36 17.833 -52 34.5v-34c0 -30 -5.66699 -58.333 -17 -85s-27 -50 -47 -70s-43.167 -36 -69.5 -48
s-54.5 -18 -84.5 -18h-124c-30 0 -58.167 6 -84.5 18s-49.5 28 -69.5 48s-35.667 43.333 -47 70s-17 55 -17 85v266h133v-275c0 -13.333 2.5 -25.666 7.5 -36.999s11.667 -21.333 20 -30s18.166 -15.5 29.499 -20.5s23.333 -7.5 36 -7.5h108v0zM630.002 577.997
c0 20.667 7.16699 38.334 21.5 53.001s31.833 22 52.5 22s38.167 -7.33301 52.5 -22s21.5 -32.334 21.5 -53.001c0 -20 -7.16699 -37.167 -21.5 -51.5s-31.833 -21.5 -52.5 -21.5s-38.167 7.16699 -52.5 21.5s-21.5 31.5 -21.5 51.5zM795.002 577.997
c0 20.667 7.16699 38.334 21.5 53.001s31.833 22 52.5 22s38.167 -7.33301 52.5 -22s21.5 -32.334 21.5 -53.001c0 -20 -7.16699 -37.167 -21.5 -51.5s-31.833 -21.5 -52.5 -21.5s-38.167 7.16699 -52.5 21.5s-21.5 31.5 -21.5 51.5zM711.002 724.997
c0 20.667 7.16699 38.334 21.5 53.001s31.833 22 52.5 22s38.167 -7.33301 52.5 -22s21.5 -32.334 21.5 -53.001c0 -20 -7.16699 -37.167 -21.5 -51.5s-31.833 -21.5 -52.5 -21.5s-38.167 7.16699 -52.5 21.5s-21.5 31.5 -21.5 51.5z" />
    <glyph glyph-name="sadiso" unicode="&#x635;" horiz-adv-x="1120" arabic-form="isolated" 
d="M218 -211c-30 0 -58.165 5.99707 -84.498 17.9971s-49.5 28 -69.5 48s-35.667 43.333 -47 70s-17 55 -17 85v266h133v-275c0 -13.333 2.5 -25.666 7.5 -36.999s11.667 -21.333 20 -30s18.166 -15.5 29.499 -20.5s23.333 -7.5 36 -7.5h108c12.667 0 24.667 2.5 36 7.5
s21.166 11.833 29.499 20.5s15 18.667 20 30s7.5 23.666 7.5 36.999v412h133v-117c44 46.667 90.333 81.834 139 105.501s98 35.5 148 35.5c30 0 58.167 -6 84.5 -18s49.5 -28 69.5 -48s35.667 -43.333 47 -70s17 -55 17 -85v-216h-505c-1.33301 -28.667 -8 -55.667 -20 -81
s-27.833 -47.666 -47.5 -66.999s-42.5 -34.666 -68.5 -45.999s-53.333 -17 -82 -17h-124zM932.002 116.997l-0.00292969 108c0 12.667 -2.5 24.667 -7.5 36s-11.667 21.333 -20 30s-18.166 15.334 -29.499 20.001s-23.333 7 -36 7c-13.333 0 -30.5 -2.33301 -51.5 -7
s-44.167 -14.334 -69.5 -29.001s-51.666 -35.167 -78.999 -61.5s-53.666 -60.833 -78.999 -103.5h372z" />
    <glyph glyph-name="dadiso" unicode="&#x636;" horiz-adv-x="1120" arabic-form="isolated" 
d="M218 -211c-30 0 -58.165 5.99707 -84.498 17.9971s-49.5 28 -69.5 48s-35.667 43.333 -47 70s-17 55 -17 85v266h133v-275c0 -13.333 2.5 -25.666 7.5 -36.999s11.667 -21.333 20 -30s18.166 -15.5 29.499 -20.5s23.333 -7.5 36 -7.5h108c12.667 0 24.667 2.5 36 7.5
s21.166 11.833 29.499 20.5s15 18.667 20 30s7.5 23.666 7.5 36.999v412h133v-117c44 46.667 90.333 81.834 139 105.501s98 35.5 148 35.5c30 0 58.167 -6 84.5 -18s49.5 -28 69.5 -48s35.667 -43.333 47 -70s17 -55 17 -85v-216h-505c-1.33301 -28.667 -8 -55.667 -20 -81
s-27.833 -47.666 -47.5 -66.999s-42.5 -34.666 -68.5 -45.999s-53.333 -17 -82 -17h-124zM932.002 116.997l-0.00292969 108c0 12.667 -2.5 24.667 -7.5 36s-11.667 21.333 -20 30s-18.166 15.334 -29.499 20.001s-23.333 7 -36 7c-13.333 0 -30.5 -2.33301 -51.5 -7
s-44.167 -14.334 -69.5 -29.001s-51.666 -35.167 -78.999 -61.5s-53.666 -60.833 -78.999 -103.5h372zM684.999 576.997c0 20.667 7.16699 38.334 21.5 53.001s31.833 22 52.5 22s38.167 -7.33301 52.5 -22s21.5 -32.334 21.5 -53.001c0 -20 -7.16699 -37.167 -21.5 -51.5
s-31.833 -21.5 -52.5 -21.5s-38.167 7.16699 -52.5 21.5s-21.5 31.5 -21.5 51.5z" />
    <glyph glyph-name="tahiso" unicode="&#x637;" horiz-adv-x="872" arabic-form="isolated" 
d="M59 0l-1 116.999h125v674h129v-495c44 46.667 90.333 81.834 139 105.501s98 35.5 148 35.5c30 0 58.167 -6 84.5 -18s49.5 -28 69.5 -48s35.667 -43.333 47 -70s17 -55 17 -85v-216h-758zM684 116.999l-0.00292969 108c0 12.667 -2.5 24.667 -7.5 36
s-11.667 21.333 -20 30s-18.166 15.334 -29.499 20.001s-23.333 7 -36 7c-13.333 0 -30.5 -2.33301 -51.5 -7s-44.167 -14.334 -69.5 -29.001s-51.666 -35.167 -78.999 -61.5s-53.666 -60.833 -78.999 -103.5h372z" />
    <glyph glyph-name="zadiso" unicode="&#x638;" horiz-adv-x="806" arabic-form="isolated" 
d="M-7 0l-1 116.999h125v674h129v-495c44 46.667 90.333 81.834 139 105.501s98 35.5 148 35.5c30 0 58.167 -6 84.5 -18s49.5 -28 69.5 -48s35.667 -43.333 47 -70s17 -55 17 -85v-216h-758zM618 116.999l-0.00292969 108c0 12.667 -2.5 24.667 -7.5 36
s-11.667 21.333 -20 30s-18.166 15.334 -29.499 20.001s-23.333 7 -36 7c-13.333 0 -30.5 -2.33301 -51.5 -7s-44.167 -14.334 -69.5 -29.001s-51.666 -35.167 -78.999 -61.5s-53.666 -60.833 -78.999 -103.5h372zM397.997 576.999c0 20.667 7.16699 38.334 21.5 53.001
s31.833 22 52.5 22s38.167 -7.33301 52.5 -22s21.5 -32.334 21.5 -53.001c0 -20 -7.16699 -37.167 -21.5 -51.5s-31.833 -21.5 -52.5 -21.5s-38.167 7.16699 -52.5 21.5s-21.5 31.5 -21.5 51.5z" />
    <glyph glyph-name="ayniso" unicode="&#x639;" horiz-adv-x="605" arabic-form="isolated" 
d="M238 0c-13.333 0 -25.4961 -3.16992 -36.4961 -9.50293s-20.833 -14.666 -29.5 -24.999s-15.334 -22 -20.001 -35s-7 -25.833 -7 -38.5c0 -26 9 -48 27 -66s40 -27 66 -27h172l-1 -110h-163c-30 0 -58.5 5.5 -85.5 16.5s-50.833 26 -71.5 45s-37.167 41.333 -49.5 67
s-18.5 53.5 -18.5 83.5c0 28 5.16699 54.5 15.5 79.5s24.166 47 41.499 66s37.833 34.667 61.5 47s49.167 19.833 76.5 22.5l1 1c-16.667 30 -25 63 -25 99c0 30 6.16699 58.333 18.5 85s28.833 50 49.5 70s44.5 36 71.5 48s55.5 18 85.5 18
c30.667 0 59.5 -6.16699 86.5 -18.5s50.5 -29.166 70.5 -50.499l-83 -80c-10.667 7.33301 -19.334 13 -26.001 17s-12.834 7 -18.501 9s-11.334 3.16699 -17.001 3.5s-12.5 0.5 -20.5 0.5c-26 0 -48 -9 -66 -27s-27 -40 -27 -66c0 -12.667 2.33301 -25.5 7 -38.5
s11.334 -24.667 20.001 -35s18.5 -18.666 29.5 -24.999s23.167 -9.5 36.5 -9.5h162v-117h-333z" />
    <glyph glyph-name="ghaiso" unicode="&#x63a;" horiz-adv-x="605" arabic-form="isolated" 
d="M238 0c-13.333 0 -25.4961 -3.16992 -36.4961 -9.50293s-20.833 -14.666 -29.5 -24.999s-15.334 -22 -20.001 -35s-7 -25.833 -7 -38.5c0 -26 9 -48 27 -66s40 -27 66 -27h172l-1 -110h-163c-30 0 -58.5 5.5 -85.5 16.5s-50.833 26 -71.5 45s-37.167 41.333 -49.5 67
s-18.5 53.5 -18.5 83.5c0 28 5.16699 54.5 15.5 79.5s24.166 47 41.499 66s37.833 34.667 61.5 47s49.167 19.833 76.5 22.5l1 1c-16.667 30 -25 63 -25 99c0 30 6.16699 58.333 18.5 85s28.833 50 49.5 70s44.5 36 71.5 48s55.5 18 85.5 18
c30.667 0 59.5 -6.16699 86.5 -18.5s50.5 -29.166 70.5 -50.499l-83 -80c-10.667 7.33301 -19.334 13 -26.001 17s-12.834 7 -18.501 9s-11.334 3.16699 -17.001 3.5s-12.5 0.5 -20.5 0.5c-26 0 -48 -9 -66 -27s-27 -40 -27 -66c0 -12.667 2.33301 -25.5 7 -38.5
s11.334 -24.667 20.001 -35s18.5 -18.666 29.5 -24.999s23.167 -9.5 36.5 -9.5h162v-117h-333zM308.004 576.997c0 20.667 7.16699 38.334 21.5 53.001s31.833 22 52.5 22s38.167 -7.33301 52.5 -22s21.5 -32.334 21.5 -53.001c0 -20 -7.16699 -37.167 -21.5 -51.5
s-31.833 -21.5 -52.5 -21.5s-38.167 7.16699 -52.5 21.5s-21.5 31.5 -21.5 51.5z" />
    <glyph glyph-name="faiso" unicode="&#x641;" horiz-adv-x="997" arabic-form="isolated" 
d="M178 0c-22.667 0 -44.6689 3.50098 -66.002 10.501s-40.333 18.167 -57 33.5s-30 34.666 -40 57.999s-15 51.666 -15 84.999v190h129v-189c0 -26.667 6.83301 -45.167 20.5 -55.5s35.834 -15.5 66.501 -15.5h307c-7.33301 14.667 -13.166 30.334 -17.499 47.001
s-6.5 34 -6.5 52c0 30 6.16699 58.333 18.5 85s28.833 50 49.5 70s44.5 36 71.5 48s55.5 18 85.5 18s58.167 -6 84.5 -18s49.5 -28 69.5 -48s35.667 -43.333 47 -70s17 -55 17 -85v-216h-764zM622.998 225.001c0 -12.667 2.33105 -25.502 6.99805 -38.502
s11.334 -24.667 20.001 -35s18.5 -18.666 29.5 -24.999s23.167 -9.5 36.5 -9.5h93v108c0 12.667 -2.5 24.667 -7.5 36s-11.667 21.333 -20 30s-18.166 15.334 -29.499 20.001s-23.333 7 -36 7c-26 0 -48 -9 -66 -27s-27 -40 -27 -66zM662.996 576.999
c0 20.667 7.16699 38.334 21.5 53.001s31.833 22 52.5 22s38.167 -7.33301 52.5 -22s21.5 -32.334 21.5 -53.001c0 -20 -7.16699 -37.167 -21.5 -51.5s-31.833 -21.5 -52.5 -21.5s-38.167 7.16699 -52.5 21.5s-21.5 31.5 -21.5 51.5z" />
    <glyph glyph-name="kaafiso" unicode="&#x642;" horiz-adv-x="791" arabic-form="isolated" 
d="M219 -211c-30 0 -58.165 5.99902 -84.498 17.999s-49.5 28 -69.5 48s-35.667 43.333 -47 70s-17 55 -17 85v266h133v-275c0 -13.333 2.5 -25.666 7.5 -36.999s11.667 -21.333 20 -30s18.166 -15.5 29.499 -20.5s23.333 -7.5 36 -7.5h283c12.667 0 24.5 2.5 35.5 7.5
s20.833 11.833 29.5 20.5s15.5 18.667 20.5 30s7.5 23.333 7.5 36h-92c-30 0 -58.167 5.66699 -84.5 17s-49.333 26.666 -69 45.999s-35.334 42.166 -47.001 68.499s-17.5 54.5 -17.5 84.5s6.16699 58.333 18.5 85s28.833 50 49.5 70s44.5 36 71.5 48s55.5 18 85.5 18
s58.167 -6 84.5 -18s49.5 -28 69.5 -48s35.667 -43.333 47 -70s17 -55 17 -85v-206v-9v-1c-1.33301 -28.667 -8 -55.667 -20 -81s-27.833 -47.666 -47.5 -66.999s-42.5 -34.666 -68.5 -45.999s-53.333 -17 -82 -17h-299zM417.002 224.999
c0 -12.667 2.33105 -25.502 6.99805 -38.502s11.334 -24.667 20.001 -35s18.5 -18.666 29.5 -24.999s23.167 -9.5 36.5 -9.5h93v108c0 12.667 -2.5 24.667 -7.5 36s-11.667 21.333 -20 30s-18.166 15.334 -29.499 20.001s-23.333 7 -36 7c-26 0 -48 -9 -66 -27
s-27 -40 -27 -66zM359 576.997c0 20.667 7.16699 38.334 21.5 53.001s31.833 22 52.5 22s38.167 -7.33301 52.5 -22s21.5 -32.334 21.5 -53.001c0 -20 -7.16699 -37.167 -21.5 -51.5s-31.833 -21.5 -52.5 -21.5s-38.167 7.16699 -52.5 21.5s-21.5 31.5 -21.5 51.5z
M524 576.997c0 20.667 7.16699 38.334 21.5 53.001s31.833 22 52.5 22s38.167 -7.33301 52.5 -22s21.5 -32.334 21.5 -53.001c0 -20 -7.16699 -37.167 -21.5 -51.5s-31.833 -21.5 -52.5 -21.5s-38.167 7.16699 -52.5 21.5s-21.5 31.5 -21.5 51.5z" />
    <glyph glyph-name="kafiso" unicode="&#x643;" horiz-adv-x="752" arabic-form="isolated" 
d="M178 0c-22.667 0 -44.668 3.50195 -66.001 10.502s-40.333 18.167 -57 33.5s-30 34.666 -40 57.999s-15 51.666 -15 84.999v190h129v-189c0 -26.667 6.83301 -45.167 20.5 -55.5s35.834 -15.5 66.501 -15.5h347v674h129v-791h-514zM465.999 370.002h-239v79h53
c-11.333 17.333 -17 34.666 -17 51.999c0 14.667 3.33301 29 10 43s15.5 26.5 26.5 37.5s24 19.833 39 26.5s30.833 10 47.5 10h72v-87h-53c-16 0 -27.667 -3.83301 -35 -11.5s-11 -17.167 -11 -28.5s3.66699 -21.166 11 -29.499s21.333 -12.5 42 -12.5h54v-79z" />
    <glyph glyph-name="lamiso" unicode="&#x644;" horiz-adv-x="620" arabic-form="isolated" 
d="M218 -211c-30 0 -58.165 6 -84.498 18s-49.5 28 -69.5 48s-35.667 43.333 -47 70s-17 55 -17 85v266h133v-275c0 -13.333 2.5 -25.666 7.5 -36.999s11.667 -21.333 20 -30s18.166 -15.5 29.499 -20.5s23.333 -7.5 36 -7.5h108c12.667 0 24.667 2.5 36 7.5
s21.166 11.833 29.499 20.5s15 18.667 20 30s7.5 23.666 7.5 36.999v790h133v-781c0 -30 -5.66699 -58.333 -17 -85s-27 -50 -47 -70s-43.167 -36 -69.5 -48s-54.5 -18 -84.5 -18h-124z" />
    <glyph glyph-name="meemiso" unicode="&#x645;" horiz-adv-x="742" arabic-form="isolated" 
d="M248 0c-13.333 0 -25.499 -3.16797 -36.499 -9.50098s-20.833 -14.666 -29.5 -24.999s-15.334 -22 -20.001 -35s-7 -25.833 -7 -38.5v-204h-125l1 213c0 30 5.83301 58.167 17.5 84.5s27.334 49.166 47.001 68.499s42.667 34.666 69 45.999s54.5 17 84.5 17v99
c0 30 5.66699 58.333 17 85s27 50 47 70s43.167 36 69.5 48s54.5 18 84.5 18s58.5 -6 85.5 -18s50.833 -28 71.5 -48s37.167 -43.333 49.5 -70s18.5 -55 18.5 -85s-5.83301 -58.167 -17.5 -84.5s-27.334 -49.166 -47.001 -68.499s-42.667 -34.666 -69 -45.999
s-54.5 -17 -84.5 -17h-226zM568.001 224.999c0 26 -9.00195 48.002 -27.002 66.002s-40 27 -66 27c-12.667 0 -24.667 -2.33301 -36 -7s-21.166 -11.334 -29.499 -20.001s-15 -18.667 -20 -30s-7.5 -23.333 -7.5 -36v-108h93c12.667 0 24.667 3.16699 36 9.5
s21.333 14.666 30 24.999s15.334 22 20.001 35s7 25.833 7 38.5z" />
    <glyph glyph-name="nouniso" unicode="&#x646;" horiz-adv-x="614" arabic-form="isolated" 
d="M212 -211c-30 0 -58.165 6 -84.498 18s-49.5 28 -69.5 48s-35.667 43.333 -47 70s-17 55 -17 85v266h133v-275c0 -13.333 2.5 -25.666 7.5 -36.999s11.667 -21.333 20 -30s18.166 -15.5 29.499 -20.5s23.333 -7.5 36 -7.5h108c12.667 0 24.667 2.5 36 7.5
s21.166 11.833 29.499 20.5s15 18.667 20 30s7.5 23.666 7.5 36.999v376h133v-367c0 -30 -5.66699 -58.333 -17 -85s-27 -50 -47 -70s-43.167 -36 -69.5 -48s-54.5 -18 -84.5 -18h-124zM198.002 498c0 20.667 7.16699 38.334 21.5 53.001s31.833 22 52.5 22
s38.167 -7.33301 52.5 -22s21.5 -32.334 21.5 -53.001c0 -20 -7.16699 -37.167 -21.5 -51.5s-31.833 -21.5 -52.5 -21.5s-38.167 7.16699 -52.5 21.5s-21.5 31.5 -21.5 51.5z" />
    <glyph glyph-name="haini" unicode="&#x647;" horiz-adv-x="607" arabic-form="initial" 
d="M-9 117h76.999c-4.66699 13.333 -7 28.666 -7 45.999c0 20 4.16699 39.167 12.5 57.5s19.5 34.166 33.5 47.499s30.167 24 48.5 32s37.5 12 57.5 12s39 -4 57 -12s33.5 -18.667 46.5 -32s23.333 -29.166 31 -47.499s11.5 -37.5 11.5 -57.5v-46h55v140
c0 12.667 -2.5 24.667 -7.5 36s-11.667 21.333 -20 30s-18.166 15.334 -29.499 20.001s-23.333 7 -36 7h-194l-1 110h203c30 0 58.167 -5.5 84.5 -16.5s49.5 -26 69.5 -45s35.667 -41.333 47 -67s17 -53.5 17 -83.5v-248h-556v117zM162.999 168
c0 -12.667 4.33301 -24.333 13 -35s19.334 -16 32.001 -16h44v51c-0.666992 12.667 -5 23.167 -13 31.5s-18.333 12.5 -31 12.5s-23.334 -4.16699 -32.001 -12.5s-13 -18.833 -13 -31.5z" />
    <glyph glyph-name="wawiso" unicode="&#x648;" horiz-adv-x="523" arabic-form="isolated" 
d="M25 216c0 30 6.16797 58.335 18.501 85.002s28.833 50 49.5 70s44.5 36 71.5 48s55.5 18 85.5 18s58.167 -6 84.5 -18s49.5 -28 69.5 -48s35.667 -43.333 47 -70s17 -55 17 -85v-216c0 -73.333 -27.667 -126.5 -83 -159.5s-133.333 -49.5 -234 -49.5h-31v117h23
c34.667 0 64 1.66699 88 5s43.5 8.66602 58.5 15.999s26 16.833 33 28.5s10.833 25.834 11.5 42.501h-91c-30 0 -58.167 5.66699 -84.5 17s-49.333 26.666 -69 45.999s-35.334 42.166 -47.001 68.499s-17.5 54.5 -17.5 84.5zM149.001 225.002
c0 -12.667 2.33105 -25.502 6.99805 -38.502s11.334 -24.667 20.001 -35s18.5 -18.666 29.5 -24.999s23.167 -9.5 36.5 -9.5h93v108c0 12.667 -2.5 24.667 -7.5 36s-11.667 21.333 -20 30s-18.166 15.334 -29.499 20.001s-23.333 7 -36 7c-26 0 -48 -9 -66 -27
s-27 -40 -27 -66z" />
    <glyph glyph-name="alefma2souraiso" unicode="&#x649;" horiz-adv-x="736" arabic-form="isolated" 
d="M685 10c0.666992 -30 -4.66211 -58.333 -15.9951 -85s-27 -50 -47 -70s-43.333 -36 -70 -48s-55 -18 -85 -18h-249c-30 0 -58.167 6 -84.5 18s-49.5 28 -69.5 48s-35.667 43.333 -47 70s-17 55 -17 85v266h133v-275c0 -13.333 2.5 -25.666 7.5 -36.999
s11.667 -21.333 20 -30s18.166 -15.5 29.499 -20.5s23.333 -7.5 36 -7.5h233c12.667 0 24.667 2.5 36 7.5s21.166 11.833 29.499 20.5s15 18.667 20 30s7.5 23.666 7.5 36.999v24c0 11.333 -4 21.166 -12 29.499s-21.667 14.5 -41 18.5c-40 8.66699 -73 20.834 -99 36.501
s-46.833 33 -62.5 52s-26.5 38.5 -32.5 58.5s-9 38.667 -9 56c0 22 4.66699 42.833 14 62.5s22.166 36.667 38.499 51s35.666 25.833 57.999 34.5s46.833 13 73.5 13c34.667 0 64 -4.83301 88 -14.5s43.5 -21.834 58.5 -36.501s26.167 -30.167 33.5 -46.5
s11.666 -31.166 12.999 -44.499l-111 -25c-1.33301 7.33301 -3.5 14.833 -6.5 22.5s-7.83301 14.834 -14.5 21.501s-14.834 12 -24.501 16s-21.5 6 -35.5 6c-17.333 0 -32.166 -4.66699 -44.499 -14s-18.5 -21 -18.5 -35c0 -6 1 -13.5 3 -22.5s6.83301 -18.333 14.5 -28
s19.167 -18.834 34.5 -27.501s36.333 -16 63 -22c48.667 -10 86.167 -28.667 112.5 -56s39.5 -59 39.5 -95v-26z" />
    <glyph glyph-name="yaiso" unicode="&#x64a;" horiz-adv-x="736" arabic-form="isolated" 
d="M685 10c0.666992 -30 -4.66211 -58.333 -15.9951 -85s-27 -50 -47 -70s-43.333 -36 -70 -48s-55 -18 -85 -18h-249c-30 0 -58.167 6 -84.5 18s-49.5 28 -69.5 48s-35.667 43.333 -47 70s-17 55 -17 85v266h133v-275c0 -13.333 2.5 -25.666 7.5 -36.999
s11.667 -21.333 20 -30s18.166 -15.5 29.499 -20.5s23.333 -7.5 36 -7.5h233c12.667 0 24.667 2.5 36 7.5s21.166 11.833 29.499 20.5s15 18.667 20 30s7.5 23.666 7.5 36.999v24c0 11.333 -4 21.166 -12 29.499s-21.667 14.5 -41 18.5c-40 8.66699 -73 20.834 -99 36.501
s-46.833 33 -62.5 52s-26.5 38.5 -32.5 58.5s-9 38.667 -9 56c0 22 4.66699 42.833 14 62.5s22.166 36.667 38.499 51s35.666 25.833 57.999 34.5s46.833 13 73.5 13c34.667 0 64 -4.83301 88 -14.5s43.5 -21.834 58.5 -36.501s26.167 -30.167 33.5 -46.5
s11.666 -31.166 12.999 -44.499l-111 -25c-1.33301 7.33301 -3.5 14.833 -6.5 22.5s-7.83301 14.834 -14.5 21.501s-14.834 12 -24.501 16s-21.5 6 -35.5 6c-17.333 0 -32.166 -4.66699 -44.499 -14s-18.5 -21 -18.5 -35c0 -6 1 -13.5 3 -22.5s6.83301 -18.333 14.5 -28
s19.167 -18.834 34.5 -27.501s36.333 -16 63 -22c48.667 -10 86.167 -28.667 112.5 -56s39.5 -59 39.5 -95v-26zM197.004 -346c0 20.667 7.16699 38.334 21.5 53.001s31.833 22 52.5 22s38.167 -7.33301 52.5 -22s21.5 -32.334 21.5 -53.001
c0 -20 -7.16699 -37.167 -21.5 -51.5s-31.833 -21.5 -52.5 -21.5s-38.167 7.16699 -52.5 21.5s-21.5 31.5 -21.5 51.5zM362.004 -346c0 20.667 7.16699 38.334 21.5 53.001s31.833 22 52.5 22s38.167 -7.33301 52.5 -22s21.5 -32.334 21.5 -53.001
c0 -20 -7.16699 -37.167 -21.5 -51.5s-31.833 -21.5 -52.5 -21.5s-38.167 7.16699 -52.5 21.5s-21.5 31.5 -21.5 51.5z" />
    <glyph glyph-name="alefwaslaiso" unicode="&#x671;" horiz-adv-x="249" arabic-form="isolated" 
d="M60 0v791h129v-791h-129z" />
    <glyph glyph-name="piso.001" unicode="&#x67e;" horiz-adv-x="860" arabic-form="isolated" 
d="M584 117c30.667 0 52.832 5.16699 66.499 15.5s20.5 28.833 20.5 55.5v189h129v-190c0 -33.333 -5 -61.666 -15 -84.999s-23.333 -42.666 -40 -57.999s-35.667 -26.5 -57 -33.5s-43.333 -10.5 -66 -10.5h-444c-22.667 0 -44.667 3.5 -66 10.5s-40.333 18.167 -57 33.5
s-30 34.666 -40 57.999s-15 51.666 -15 84.999v190h129v-189c0 -26.667 6.83301 -45.167 20.5 -55.5s35.834 -15.5 66.501 -15.5h368v0zM274.998 -134.93c0 -20.6641 7.16699 -38.3281 21.5 -52.9932s31.833 -21.9971 52.5 -21.9971s38.167 7.33203 52.5 21.9971
s21.5 32.3291 21.5 52.9932c0 19.9971 -7.16699 37.1621 -21.5 51.4941c-14.333 14.3311 -31.833 21.4971 -52.5 21.4971s-38.167 -7.16602 -52.5 -21.4971c-14.333 -14.332 -21.5 -31.4971 -21.5 -51.4941zM439.998 -134.93c0 -20.6641 7.16699 -38.3281 21.5 -52.9932
s31.833 -21.9971 52.5 -21.9971s38.167 7.33203 52.5 21.9971s21.5 32.3291 21.5 52.9932c0 19.9971 -7.16699 37.1621 -21.5 51.4941c-14.333 14.3311 -31.833 21.4971 -52.5 21.4971s-38.167 -7.16602 -52.5 -21.4971c-14.333 -14.332 -21.5 -31.4971 -21.5 -51.4941z
M355.998 -281.911c0 -20.665 7.16699 -38.3301 21.5 -52.9951s31.833 -21.9971 52.5 -21.9971s38.167 7.33203 52.5 21.9971s21.5 32.3301 21.5 52.9951c0 19.9971 -7.16699 37.1611 -21.5 51.4922c-14.333 14.332 -31.833 21.498 -52.5 21.498
s-38.167 -7.16602 -52.5 -21.498c-14.333 -14.3311 -21.5 -31.4951 -21.5 -51.4922z" />
    <glyph glyph-name="giso" unicode="&#x686;" horiz-adv-x="625" arabic-form="isolated" 
d="M246 -311c-30 0 -58.501 5.5 -85.501 16.5s-50.833 26 -71.5 45s-37.167 41.333 -49.5 67s-18.5 53.5 -18.5 83.5s5.83301 58.167 17.5 84.5s27.334 49.166 47.001 68.499s42.667 34.666 69 45.999s54.5 17 84.5 17h199v108c0 12.667 -2.5 24.667 -7.5 36
s-11.667 21.333 -20 30s-18.166 15.334 -29.499 20.001s-23.333 7 -36 7h-184l-1 110h193c30 0 58.167 -5.5 84.5 -16.5s49.5 -26 69.5 -45s35.667 -41.333 47 -67s17 -53.5 17 -83.5v-216h-333c-13.333 0 -25.5 -3.16699 -36.5 -9.5s-20.833 -14.666 -29.5 -24.999
s-15.334 -22 -20.001 -35s-7 -25.833 -7 -38.5c0 -26 9 -48 27 -66s40 -27 66 -27h22l-1 -110h-13zM268.999 -135c0 20 7.16699 37.167 21.5 51.5s31.833 21.5 52.5 21.5s38.167 -7.16699 52.5 -21.5s21.5 -31.5 21.5 -51.5c0 -20.667 -7.16699 -38.334 -21.5 -53.001
s-31.833 -22 -52.5 -22s-38.167 7.33301 -52.5 22s-21.5 32.334 -21.5 53.001zM433.999 -135c0 20 7.16699 37.167 21.5 51.5s31.833 21.5 52.5 21.5s38.167 -7.16699 52.5 -21.5s21.5 -31.5 21.5 -51.5c0 -20.667 -7.16699 -38.334 -21.5 -53.001s-31.833 -22 -52.5 -22
s-38.167 7.33301 -52.5 22s-21.5 32.334 -21.5 53.001zM349.999 -282c0 20 7.16699 37.167 21.5 51.5s31.833 21.5 52.5 21.5s38.167 -7.16699 52.5 -21.5s21.5 -31.5 21.5 -51.5c0 -20.667 -7.16699 -38.334 -21.5 -53.001s-31.833 -22 -52.5 -22s-38.167 7.33301 -52.5 22
s-21.5 32.334 -21.5 53.001z" />
    <glyph glyph-name="jehiso" unicode="&#x698;" horiz-adv-x="334" arabic-form="isolated" 
d="M85 -211c-19.333 0 -35.834 1.5 -49.501 4.5s-22.167 5.16699 -25.5 6.5v111c4.66699 -1.33301 10.334 -2.5 17.001 -3.5s14.667 -1.5 24 -1.5h35c20 0 34.167 5.16699 42.5 15.5s12.5 24.5 12.5 42.5v413h133v-426c0 -24 -3.5 -45.833 -10.5 -65.5
s-17.167 -36.667 -30.5 -51s-29.5 -25.5 -48.5 -33.5s-40.5 -12 -64.5 -12h-35zM43.999 578c0 20.667 7.16699 38.334 21.5 53.001s31.833 22 52.5 22s38.167 -7.33301 52.5 -22s21.5 -32.334 21.5 -53.001c0 -20 -7.16699 -37.167 -21.5 -51.5s-31.833 -21.5 -52.5 -21.5
s-38.167 7.16699 -52.5 21.5s-21.5 31.5 -21.5 51.5zM208.999 578c0 20.667 7.16699 38.334 21.5 53.001s31.833 22 52.5 22s38.167 -7.33301 52.5 -22s21.5 -32.334 21.5 -53.001c0 -20 -7.16699 -37.167 -21.5 -51.5s-31.833 -21.5 -52.5 -21.5
s-38.167 7.16699 -52.5 21.5s-21.5 31.5 -21.5 51.5zM124.999 725c0 20.667 7.16699 38.334 21.5 53.001s31.833 22 52.5 22s38.167 -7.33301 52.5 -22s21.5 -32.334 21.5 -53.001c0 -20 -7.16699 -37.167 -21.5 -51.5s-31.833 -21.5 -52.5 -21.5
s-38.167 7.16699 -52.5 21.5s-21.5 31.5 -21.5 51.5z" />
    <glyph glyph-name="vehiso" unicode="&#x6a4;" horiz-adv-x="997" arabic-form="isolated" 
d="M178 0c-22.667 0 -44.6689 3.50098 -66.002 10.501s-40.333 18.167 -57 33.5s-30 34.666 -40 57.999s-15 51.666 -15 84.999v190h129v-189c0 -26.667 6.83301 -45.167 20.5 -55.5s35.834 -15.5 66.501 -15.5h307c-7.33301 14.667 -13.166 30.334 -17.499 47.001
s-6.5 34 -6.5 52c0 30 6.16699 58.333 18.5 85s28.833 50 49.5 70s44.5 36 71.5 48s55.5 18 85.5 18s58.167 -6 84.5 -18s49.5 -28 69.5 -48s35.667 -43.333 47 -70s17 -55 17 -85v-216h-764zM622.998 225.001c0 -12.667 2.33105 -25.502 6.99805 -38.502
s11.334 -24.667 20.001 -35s18.5 -18.666 29.5 -24.999s23.167 -9.5 36.5 -9.5h93v108c0 12.667 -2.5 24.667 -7.5 36s-11.667 21.333 -20 30s-18.166 15.334 -29.499 20.001s-23.333 7 -36 7c-26 0 -48 -9 -66 -27s-27 -40 -27 -66zM564.996 577.999
c0 20.667 7.16699 38.334 21.5 53.001s31.833 22 52.5 22s38.167 -7.33301 52.5 -22s21.5 -32.334 21.5 -53.001c0 -20 -7.16699 -37.167 -21.5 -51.5s-31.833 -21.5 -52.5 -21.5s-38.167 7.16699 -52.5 21.5s-21.5 31.5 -21.5 51.5zM729.996 577.999
c0 20.667 7.16699 38.334 21.5 53.001s31.833 22 52.5 22s38.167 -7.33301 52.5 -22s21.5 -32.334 21.5 -53.001c0 -20 -7.16699 -37.167 -21.5 -51.5s-31.833 -21.5 -52.5 -21.5s-38.167 7.16699 -52.5 21.5s-21.5 31.5 -21.5 51.5zM645.996 724.999
c0 20.667 7.16699 38.334 21.5 53.001s31.833 22 52.5 22s38.167 -7.33301 52.5 -22s21.5 -32.334 21.5 -53.001c0 -20 -7.16699 -37.167 -21.5 -51.5s-31.833 -21.5 -52.5 -21.5s-38.167 7.16699 -52.5 21.5s-21.5 31.5 -21.5 51.5z" />
    <glyph glyph-name="kehehiso" unicode="&#x6a9;" horiz-adv-x="762" arabic-form="isolated" 
d="M178 0c-22.667 0 -44.668 3.50195 -66.001 10.502s-40.333 18.167 -57 33.5s-30 34.666 -40 57.999s-15 51.666 -15 84.999v190h129v-189c0 -26.667 6.83301 -45.167 20.5 -55.5s35.834 -15.5 66.501 -15.5h347v674h129v-791h-514zM465.999 370.002h-239v79h53
c-11.333 17.333 -17 34.666 -17 51.999c0 14.667 3.33301 29 10 43s15.5 26.5 26.5 37.5s24 19.833 39 26.5s30.833 10 47.5 10h72v-87h-53c-16 0 -27.667 -3.83301 -35 -11.5s-11 -17.167 -11 -28.5s3.66699 -21.166 11 -29.499s21.333 -12.5 42 -12.5h54v-79z" />
    <glyph glyph-name="gafiso" unicode="&#x6af;" horiz-adv-x="750" arabic-form="isolated" 
d="M178 0c-22.667 0 -44.668 3.50195 -66.001 10.502s-40.333 18.167 -57 33.5s-30 34.666 -40 57.999s-15 51.666 -15 84.999v190h129v-189c0 -26.667 6.83301 -45.167 20.5 -55.5s35.834 -15.5 66.501 -15.5h347v674h129v-791h-514zM465.999 370.002h-239v79h53
c-11.333 17.333 -17 34.666 -17 51.999c0 14.667 3.33301 29 10 43s15.5 26.5 26.5 37.5s24 19.833 39 26.5s30.833 10 47.5 10h72v-87h-53c-16 0 -27.667 -3.83301 -35 -11.5s-11 -17.167 -11 -28.5s3.66699 -21.166 11 -29.499s21.333 -12.5 42 -12.5h54v-79z" />
    <glyph glyph-name="farsiyaiso" unicode="&#x6cc;" horiz-adv-x="939" arabic-form="isolated" 
d="M785 10c0.666992 -30 -4.66211 -58.333 -15.9951 -85s-27 -50 -47 -70s-43.333 -36 -70 -48s-55 -18 -85 -18h-249c-30 0 -58.167 6 -84.5 18s-49.5 28 -69.5 48s-35.667 43.333 -47 70s-17 55 -17 85v266h133v-275c0 -13.333 2.5 -25.666 7.5 -36.999
s11.667 -21.333 20 -30s18.166 -15.5 29.499 -20.5s23.333 -7.5 36 -7.5h233c12.667 0 24.667 2.5 36 7.5s21.166 11.833 29.499 20.5s15 18.667 20 30s7.5 23.666 7.5 36.999v24c0 11.333 -4 21.166 -12 29.499s-21.667 14.5 -41 18.5c-40 8.66699 -73 20.834 -99 36.501
s-46.833 33 -62.5 52s-26.5 38.5 -32.5 58.5s-9 38.667 -9 56c0 22 4.66699 42.833 14 62.5s22.166 36.667 38.499 51s35.666 25.833 57.999 34.5s46.833 13 73.5 13c34.667 0 64 -4.83301 88 -14.5s43.5 -21.834 58.5 -36.501s26.167 -30.167 33.5 -46.5
s11.666 -31.166 12.999 -44.499l-111 -25c-1.33301 7.33301 -3.5 14.833 -6.5 22.5s-7.83301 14.834 -14.5 21.501s-14.834 12 -24.501 16s-21.5 6 -35.5 6c-17.333 0 -32.166 -4.66699 -44.499 -14s-18.5 -21 -18.5 -35c0 -6 1 -13.5 3 -22.5s6.83301 -18.333 14.5 -28
s19.167 -18.834 34.5 -27.501s36.333 -16 63 -22c48.667 -10 86.167 -28.667 112.5 -56s39.5 -59 39.5 -95v-26z" />
    <glyph glyph-name="alefwaslafina" unicode="&#x671;" horiz-adv-x="290" arabic-form="final" 
d="M299 0l-61.001 0.00195312c-22.667 0 -44.667 3.5 -66 10.5s-40.333 18.167 -57 33.5s-30 34.666 -40 57.999s-15 51.666 -15 84.999v604h129v-603c0 -26.667 6.83301 -45.167 20.5 -55.5s35.834 -15.5 66.501 -15.5h23v-117z" />
    <glyph glyph-name="pfina" unicode="&#x67e;" horiz-adv-x="927" arabic-form="final" 
d="M584 117c30 0 51.999 5.33398 65.999 16.001s21 29.334 21 56.001v188h132v-184c0 -26.667 5.5 -46 16.5 -58s30.833 -18 59.5 -18h57v-117h-19c-32.667 0 -59.5 5.66699 -80.5 17s-41.167 32 -60.5 62c-12.667 -26.667 -31.667 -46.5 -57 -59.5s-55 -19.5 -89 -19.5
h-452c-22.667 0 -44.667 3.5 -66 10.5s-40.333 18.167 -57 33.5s-30 34.666 -40 57.999s-15 51.666 -15 84.999v190h129v-189c0 -26.667 6.83301 -45.167 20.5 -55.5s35.834 -15.5 66.501 -15.5h368v0zM287.999 -134.929c0 -20.6641 7.16699 -38.3281 21.5 -52.9932
s31.833 -21.9971 52.5 -21.9971s38.167 7.33203 52.5 21.9971s21.5 32.3291 21.5 52.9932c0 19.9971 -7.16699 37.1621 -21.5 51.4941c-14.333 14.3311 -31.833 21.4971 -52.5 21.4971s-38.167 -7.16602 -52.5 -21.4971c-14.333 -14.332 -21.5 -31.4971 -21.5 -51.4941z
M452.999 -134.929c0 -20.6641 7.16699 -38.3281 21.5 -52.9932s31.833 -21.9971 52.5 -21.9971s38.167 7.33203 52.5 21.9971s21.5 32.3291 21.5 52.9932c0 19.9971 -7.16699 37.1621 -21.5 51.4941c-14.333 14.3311 -31.833 21.4971 -52.5 21.4971
s-38.167 -7.16602 -52.5 -21.4971c-14.333 -14.332 -21.5 -31.4971 -21.5 -51.4941zM368.999 -281.91c0 -20.665 7.16699 -38.3301 21.5 -52.9951s31.833 -21.9971 52.5 -21.9971s38.167 7.33203 52.5 21.9971s21.5 32.3301 21.5 52.9951
c0 19.9971 -7.16699 37.1611 -21.5 51.4922c-14.333 14.332 -31.833 21.498 -52.5 21.498s-38.167 -7.16602 -52.5 -21.498c-14.333 -14.3311 -21.5 -31.4951 -21.5 -51.4922z" />
    <glyph glyph-name="pini" unicode="&#x67e;" horiz-adv-x="309" arabic-form="initial" 
d="M-9 117l41.999 -0.00195312c30.667 0 52.834 5.16699 66.501 15.5s20.5 28.833 20.5 55.5v189h129v-190c0 -33.333 -5 -61.666 -15 -84.999s-23.333 -42.666 -40 -57.999s-35.667 -26.5 -57 -33.5s-43.333 -10.5 -66 -10.5h-80v117zM-41.001 -134.932
c0 -20.6641 7.16699 -38.3281 21.5 -52.9932s31.833 -21.9971 52.5 -21.9971s38.167 7.33203 52.5 21.9971s21.5 32.3291 21.5 52.9932c0 19.9971 -7.16699 37.1621 -21.5 51.4941c-14.333 14.3311 -31.833 21.4971 -52.5 21.4971s-38.167 -7.16602 -52.5 -21.4971
c-14.333 -14.332 -21.5 -31.4971 -21.5 -51.4941zM123.999 -134.932c0 -20.6641 7.16699 -38.3281 21.5 -52.9932s31.833 -21.9971 52.5 -21.9971s38.167 7.33203 52.5 21.9971s21.5 32.3291 21.5 52.9932c0 19.9971 -7.16699 37.1621 -21.5 51.4941
c-14.333 14.3311 -31.833 21.4971 -52.5 21.4971s-38.167 -7.16602 -52.5 -21.4971c-14.333 -14.332 -21.5 -31.4971 -21.5 -51.4941zM39.999 -281.913c0 -20.665 7.16699 -38.3301 21.5 -52.9951s31.833 -21.9971 52.5 -21.9971s38.167 7.33203 52.5 21.9971
s21.5 32.3301 21.5 52.9951c0 19.9971 -7.16699 37.1611 -21.5 51.4922c-14.333 14.332 -31.833 21.498 -52.5 21.498s-38.167 -7.16602 -52.5 -21.498c-14.333 -14.3311 -21.5 -31.4951 -21.5 -51.4922z" />
    <glyph glyph-name="pmedi" unicode="&#x67e;" horiz-adv-x="368" arabic-form="medial" 
d="M-9 117l34 -0.000976562c30 0 52 5.33301 66 16s21 29.334 21 56.001v188h132v-184c0 -26.667 5.5 -46 16.5 -58s30.833 -18 59.5 -18h57v-117h-19c-32.667 0 -59.5 5.66699 -80.5 17s-41.167 32 -60.5 62c-12.667 -26.667 -31.667 -46.5 -57 -59.5s-55 -19.5 -89 -19.5
h-80v117zM27 -134.931c0 -20.6641 7.16699 -38.3281 21.5 -52.9932s31.833 -21.9971 52.5 -21.9971s38.167 7.33203 52.5 21.9971s21.5 32.3291 21.5 52.9932c0 19.9971 -7.16699 37.1621 -21.5 51.4941c-14.333 14.3311 -31.833 21.4971 -52.5 21.4971
s-38.167 -7.16602 -52.5 -21.4971c-14.333 -14.332 -21.5 -31.4971 -21.5 -51.4941zM192 -134.931c0 -20.6641 7.16699 -38.3281 21.5 -52.9932s31.833 -21.9971 52.5 -21.9971s38.167 7.33203 52.5 21.9971s21.5 32.3291 21.5 52.9932
c0 19.9971 -7.16699 37.1621 -21.5 51.4941c-14.333 14.3311 -31.833 21.4971 -52.5 21.4971s-38.167 -7.16602 -52.5 -21.4971c-14.333 -14.332 -21.5 -31.4971 -21.5 -51.4941zM108 -281.912c0 -20.665 7.16699 -38.3301 21.5 -52.9951s31.833 -21.9971 52.5 -21.9971
s38.167 7.33203 52.5 21.9971s21.5 32.3301 21.5 52.9951c0 19.9971 -7.16699 37.1611 -21.5 51.4922c-14.333 14.332 -31.833 21.498 -52.5 21.498s-38.167 -7.16602 -52.5 -21.498c-14.333 -14.3311 -21.5 -31.4951 -21.5 -51.4922z" />
    <glyph glyph-name="gfina" unicode="&#x686;" horiz-adv-x="639" arabic-form="final" 
d="M246 -311c-30 0 -58.501 5.5 -85.501 16.5s-50.833 26 -71.5 45s-37.167 41.333 -49.5 67s-18.5 53.5 -18.5 83.5s5.83301 58.167 17.5 84.5s27.334 49.166 47.001 68.499s42.667 34.666 69 45.999s54.5 17 84.5 17h199v108c0 12.667 -2.5 24.667 -7.5 36
s-11.667 21.333 -20 30s-18.166 15.334 -29.499 20.001s-23.333 7 -36 7h-184l-1 110h193c30 0 58.167 -5.5 84.5 -16.5s49.5 -26 69.5 -45s35.667 -41.333 47 -67s17 -53.5 17 -83.5v-99h77v-117h-410c-13.333 0 -25.5 -3.16699 -36.5 -9.5s-20.833 -14.666 -29.5 -24.999
s-15.334 -22 -20.001 -35s-7 -25.833 -7 -38.5c0 -26 9 -48 27 -66s40 -27 66 -27h60l-1 -110h-51zM321.999 -135c0 20 7.16699 37.167 21.5 51.5s31.833 21.5 52.5 21.5s38.167 -7.16699 52.5 -21.5s21.5 -31.5 21.5 -51.5c0 -20.667 -7.16699 -38.334 -21.5 -53.001
s-31.833 -22 -52.5 -22s-38.167 7.33301 -52.5 22s-21.5 32.334 -21.5 53.001zM486.999 -135c0 20 7.16699 37.167 21.5 51.5s31.833 21.5 52.5 21.5s38.167 -7.16699 52.5 -21.5s21.5 -31.5 21.5 -51.5c0 -20.667 -7.16699 -38.334 -21.5 -53.001s-31.833 -22 -52.5 -22
s-38.167 7.33301 -52.5 22s-21.5 32.334 -21.5 53.001zM402.999 -282c0 20 7.16699 37.167 21.5 51.5s31.833 21.5 52.5 21.5s38.167 -7.16699 52.5 -21.5s21.5 -31.5 21.5 -51.5c0 -20.667 -7.16699 -38.334 -21.5 -53.001s-31.833 -22 -52.5 -22s-38.167 7.33301 -52.5 22
s-21.5 32.334 -21.5 53.001z" />
    <glyph glyph-name="gini" unicode="&#x686;" horiz-adv-x="522" arabic-form="initial" 
d="M-6 117l344.999 -0.000976562v108c0 12.667 -2.5 24.667 -7.5 36s-11.667 21.333 -20 30s-18.166 15.334 -29.499 20.001s-23.333 7 -36 7h-184l-1 110h193c30 0 58.167 -5.5 84.5 -16.5s49.5 -26 69.5 -45s35.667 -41.333 47 -67s17 -53.5 17 -83.5v-216h-478v117z
M97.999 -134.931c0 -20.6641 7.16699 -38.3281 21.5 -52.9932s31.833 -21.9971 52.5 -21.9971s38.167 7.33203 52.5 21.9971s21.5 32.3291 21.5 52.9932c0 19.9971 -7.16699 37.1621 -21.5 51.4941c-14.333 14.3311 -31.833 21.4971 -52.5 21.4971
s-38.167 -7.16602 -52.5 -21.4971c-14.333 -14.332 -21.5 -31.4971 -21.5 -51.4941zM262.999 -134.931c0 -20.6641 7.16699 -38.3281 21.5 -52.9932s31.833 -21.9971 52.5 -21.9971s38.167 7.33203 52.5 21.9971s21.5 32.3291 21.5 52.9932
c0 19.9971 -7.16699 37.1621 -21.5 51.4941c-14.333 14.3311 -31.833 21.4971 -52.5 21.4971s-38.167 -7.16602 -52.5 -21.4971c-14.333 -14.332 -21.5 -31.4971 -21.5 -51.4941zM178.999 -281.912c0 -20.665 7.16699 -38.3301 21.5 -52.9951s31.833 -21.9971 52.5 -21.9971
s38.167 7.33203 52.5 21.9971s21.5 32.3301 21.5 52.9951c0 19.9971 -7.16699 37.1611 -21.5 51.4922c-14.333 14.332 -31.833 21.498 -52.5 21.498s-38.167 -7.16602 -52.5 -21.498c-14.333 -14.3311 -21.5 -31.4951 -21.5 -51.4922z" />
    <glyph glyph-name="gmedi" unicode="&#x686;" horiz-adv-x="546" arabic-form="medial" 
d="M-9 117l344.999 -0.000976562v108c0 12.667 -2.5 24.667 -7.5 36s-11.667 21.333 -20 30s-18.166 15.334 -29.499 20.001s-23.333 7 -36 7h-184l-1 110h193c30 0 58.167 -5.5 84.5 -16.5s49.5 -26 69.5 -45s35.667 -41.333 47 -67s17 -53.5 17 -83.5v-99h86v-117h-564
v117zM136.999 -134.931c0 -20.6641 7.16699 -38.3281 21.5 -52.9932s31.833 -21.9971 52.5 -21.9971s38.167 7.33203 52.5 21.9971s21.5 32.3291 21.5 52.9932c0 19.9971 -7.16699 37.1621 -21.5 51.4941c-14.333 14.3311 -31.833 21.4971 -52.5 21.4971
s-38.167 -7.16602 -52.5 -21.4971c-14.333 -14.332 -21.5 -31.4971 -21.5 -51.4941zM301.999 -134.931c0 -20.6641 7.16699 -38.3281 21.5 -52.9932s31.833 -21.9971 52.5 -21.9971s38.167 7.33203 52.5 21.9971s21.5 32.3291 21.5 52.9932
c0 19.9971 -7.16699 37.1621 -21.5 51.4941c-14.333 14.3311 -31.833 21.4971 -52.5 21.4971s-38.167 -7.16602 -52.5 -21.4971c-14.333 -14.332 -21.5 -31.4971 -21.5 -51.4941zM217.999 -281.912c0 -20.665 7.16699 -38.3301 21.5 -52.9951s31.833 -21.9971 52.5 -21.9971
s38.167 7.33203 52.5 21.9971s21.5 32.3301 21.5 52.9951c0 19.9971 -7.16699 37.1611 -21.5 51.4922c-14.333 14.332 -31.833 21.498 -52.5 21.498s-38.167 -7.16602 -52.5 -21.498c-14.333 -14.3311 -21.5 -31.4951 -21.5 -51.4922z" />
    <glyph glyph-name="jehfina" unicode="&#x698;" horiz-adv-x="363" arabic-form="final" 
d="M372 0h-98.001v-49c0 -24 -3.5 -45.833 -10.5 -65.5s-17.167 -36.667 -30.5 -51s-29.5 -25.5 -48.5 -33.5s-40.5 -12 -64.5 -12h-35c-19.333 0 -35.833 1.5 -49.5 4.5s-22.167 5.16699 -25.5 6.5v111c4.66699 -1.33301 10.334 -2.5 17.001 -3.5s14.667 -1.5 24 -1.5h35
c20 0 34.167 5.16699 42.5 15.5s12.5 24.5 12.5 42.5v413h133v-260h98v-117zM41.999 578c0 20.667 7.16699 38.334 21.5 53.001s31.833 22 52.5 22s38.167 -7.33301 52.5 -22s21.5 -32.334 21.5 -53.001c0 -20 -7.16699 -37.167 -21.5 -51.5s-31.833 -21.5 -52.5 -21.5
s-38.167 7.16699 -52.5 21.5s-21.5 31.5 -21.5 51.5zM206.999 578c0 20.667 7.16699 38.334 21.5 53.001s31.833 22 52.5 22s38.167 -7.33301 52.5 -22s21.5 -32.334 21.5 -53.001c0 -20 -7.16699 -37.167 -21.5 -51.5s-31.833 -21.5 -52.5 -21.5
s-38.167 7.16699 -52.5 21.5s-21.5 31.5 -21.5 51.5zM122.999 725c0 20.667 7.16699 38.334 21.5 53.001s31.833 22 52.5 22s38.167 -7.33301 52.5 -22s21.5 -32.334 21.5 -53.001c0 -20 -7.16699 -37.167 -21.5 -51.5s-31.833 -21.5 -52.5 -21.5
s-38.167 7.16699 -52.5 21.5s-21.5 31.5 -21.5 51.5z" />
    <glyph glyph-name="kehehfina" unicode="&#x6a9;" horiz-adv-x="797" arabic-form="final" 
d="M806 0l-628.001 0.00195312c-22.667 0 -44.667 3.5 -66 10.5s-40.333 18.167 -57 33.5s-30 34.666 -40 57.999s-15 51.666 -15 84.999v190h129v-189c0 -26.667 6.83301 -45.167 20.5 -55.5s35.834 -15.5 66.501 -15.5h347v674h129v-674h114v-117zM465.999 370.002h-239
v79h53c-11.333 17.333 -17 34.666 -17 51.999c0 14.667 3.33301 29 10 43s15.5 26.5 26.5 37.5s24 19.833 39 26.5s30.833 10 47.5 10h72v-87h-53c-16 0 -27.667 -3.83301 -35 -11.5s-11 -17.167 -11 -28.5s3.66699 -21.166 11 -29.499s21.333 -12.5 42 -12.5h54v-79z" />
    <glyph glyph-name="kafini" unicode="&#x6a9;" horiz-adv-x="638" arabic-form="initial" 
d="M59 389c-0.666992 19.333 3.16602 39.3311 11.499 59.998s21.5 38.334 39.5 53.001l350 308l80 -96l-326 -286h146c30 0 58.167 -5.5 84.5 -16.5s49.5 -26 69.5 -45s35.667 -41.333 47 -67s17 -53.5 17 -83.5v-216h-587v117h454v108c0 12.667 -2.5 24.667 -7.5 36
s-11.667 21.333 -20 30s-18.166 15.334 -29.499 20.001s-23.333 7 -36 7h-292z" />
    <glyph glyph-name="kafmedi" unicode="&#x6a9;" horiz-adv-x="673" arabic-form="medial" 
d="M59 389c-0.666992 19.333 3.16602 39.3311 11.499 59.998s21.5 38.334 39.5 53.001l350 308l80 -96l-326 -286h146c30 0 58.167 -5.5 84.5 -16.5s49.5 -26 69.5 -45s35.667 -41.333 47 -67s17 -53.5 17 -83.5v-99h104v-117h-691v117h454v108
c0 12.667 -2.5 24.667 -7.5 36s-11.667 21.333 -20 30s-18.166 15.334 -29.499 20.001s-23.333 7 -36 7h-292z" />
    <glyph glyph-name="gaffina" unicode="&#x6af;" horiz-adv-x="797" arabic-form="final" 
d="M806 0l-628.001 0.00195312c-22.667 0 -44.667 3.5 -66 10.5s-40.333 18.167 -57 33.5s-30 34.666 -40 57.999s-15 51.666 -15 84.999v190h129v-189c0 -26.667 6.83301 -45.167 20.5 -55.5s35.834 -15.5 66.501 -15.5h347v674h129v-674h114v-117zM465.999 370.002h-239
v79h53c-11.333 17.333 -17 34.666 -17 51.999c0 14.667 3.33301 29 10 43s15.5 26.5 26.5 37.5s24 19.833 39 26.5s30.833 10 47.5 10h72v-87h-53c-16 0 -27.667 -3.83301 -35 -11.5s-11 -17.167 -11 -28.5s3.66699 -21.166 11 -29.499s21.333 -12.5 42 -12.5h54v-79z" />
    <glyph glyph-name="gafini" unicode="&#x6af;" horiz-adv-x="638" arabic-form="initial" 
d="M59 389c-0.666992 19.333 3.16602 39.3311 11.499 59.998s21.5 38.334 39.5 53.001l350 308l80 -96l-326 -286h146c30 0 58.167 -5.5 84.5 -16.5s49.5 -26 69.5 -45s35.667 -41.333 47 -67s17 -53.5 17 -83.5v-216h-587v117h454v108c0 12.667 -2.5 24.667 -7.5 36
s-11.667 21.333 -20 30s-18.166 15.334 -29.499 20.001s-23.333 7 -36 7h-292z" />
    <glyph glyph-name="gafmedi" unicode="&#x6af;" horiz-adv-x="673" arabic-form="medial" 
d="M59 389c-0.666992 19.333 3.16602 39.3311 11.499 59.998s21.5 38.334 39.5 53.001l350 308l80 -96l-326 -286h146c30 0 58.167 -5.5 84.5 -16.5s49.5 -26 69.5 -45s35.667 -41.333 47 -67s17 -53.5 17 -83.5v-99h104v-117h-691v117h454v108
c0 12.667 -2.5 24.667 -7.5 36s-11.667 21.333 -20 30s-18.166 15.334 -29.499 20.001s-23.333 7 -36 7h-292z" />
    <glyph glyph-name="kirsehini" unicode="&#x649;" horiz-adv-x="309" arabic-form="initial" 
d="M-9 117l41.999 -0.00195312c30.667 0 52.834 5.16699 66.501 15.5s20.5 28.833 20.5 55.5v189h129v-190c0 -33.333 -5 -61.666 -15 -84.999s-23.333 -42.666 -40 -57.999s-35.667 -26.5 -57 -33.5s-43.333 -10.5 -66 -10.5h-80v117z" />
    <glyph glyph-name="kirsehmedi" unicode="&#x649;" horiz-adv-x="368" arabic-form="medial" 
d="M-9 117l34 -0.000976562c30 0 52 5.33301 66 16s21 29.334 21 56.001v188h132v-184c0 -26.667 5.5 -46 16.5 -58s30.833 -18 59.5 -18h57v-117h-19c-32.667 0 -59.5 5.66699 -80.5 17s-41.167 32 -60.5 62c-12.667 -26.667 -31.667 -46.5 -57 -59.5s-55 -19.5 -89 -19.5
h-80v117z" />
    <glyph glyph-name="alefma2sourafina" unicode="&#x6cc;" horiz-adv-x="948" arabic-form="final" 
d="M898 0c-30 0 -58.1631 6 -84.4961 18s-49.5 28 -69.5 48s-35.667 43.333 -47 70s-17 55 -17 85v38h-13c-13.333 0 -25.5 -3.16699 -36.5 -9.5s-20.833 -14.666 -29.5 -24.999s-15.334 -21.833 -20.001 -34.5s-7 -25.334 -7 -38.001v-16h1v-126
c0 -30 -5.66699 -58.333 -17 -85s-27 -50 -47 -70s-43.167 -36 -69.5 -48s-54.5 -18 -84.5 -18h-139c-30 0 -58.167 6 -84.5 18s-49.5 28 -69.5 48s-35.667 43.333 -47 70s-17 55 -17 85v266h133v-275c0 -13.333 2.5 -25.666 7.5 -36.999s11.667 -21.333 20 -30
s18.166 -15.5 29.499 -20.5s23.333 -7.5 36 -7.5h123c12.667 0 24.667 2.5 36 7.5s21.166 11.833 29.499 20.5s15 18.667 20 30s7.5 23.666 7.5 36.999v160c0 30 6.16699 58.167 18.5 84.5s29 49.166 50 68.499s45 34.666 72 45.999s55.5 17 85.5 17h145v-165
c0 -13.333 2.5 -25.666 7.5 -36.999s11.667 -21.166 20 -29.499s18.166 -15 29.499 -20s23.333 -7.5 36 -7.5l51 -1v-117h-59z" />
    <glyph glyph-name="yaini" unicode="&#x6cc;" horiz-adv-x="309" arabic-form="initial" 
d="M-9 117l41.999 -0.00195312c30.667 0 52.834 5.16699 66.501 15.5s20.5 28.833 20.5 55.5v189h129v-190c0 -33.333 -5 -61.666 -15 -84.999s-23.333 -42.666 -40 -57.999s-35.667 -26.5 -57 -33.5s-43.333 -10.5 -66 -10.5h-80v117zM-44.001 -138.002
c0 20.667 7.16699 38.334 21.5 53.001s31.833 22 52.5 22s38.167 -7.33301 52.5 -22s21.5 -32.334 21.5 -53.001c0 -20 -7.16699 -37.167 -21.5 -51.5s-31.833 -21.5 -52.5 -21.5s-38.167 7.16699 -52.5 21.5s-21.5 31.5 -21.5 51.5zM120.999 -138.002
c0 20.667 7.16699 38.334 21.5 53.001s31.833 22 52.5 22s38.167 -7.33301 52.5 -22s21.5 -32.334 21.5 -53.001c0 -20 -7.16699 -37.167 -21.5 -51.5s-31.833 -21.5 -52.5 -21.5s-38.167 7.16699 -52.5 21.5s-21.5 31.5 -21.5 51.5z" />
    <glyph glyph-name="yamedi" unicode="&#x6cc;" horiz-adv-x="368" arabic-form="medial" 
d="M-9 117l34 -0.000976562c30 0 52 5.33301 66 16s21 29.334 21 56.001v188h132v-184c0 -26.667 5.5 -46 16.5 -58s30.833 -18 59.5 -18h57v-117h-19c-32.667 0 -59.5 5.66699 -80.5 17s-41.167 32 -60.5 62c-12.667 -26.667 -31.667 -46.5 -57 -59.5s-55 -19.5 -89 -19.5
h-80v117zM25 -138.001c0 20.667 7.16699 38.334 21.5 53.001s31.833 22 52.5 22s38.167 -7.33301 52.5 -22s21.5 -32.334 21.5 -53.001c0 -20 -7.16699 -37.167 -21.5 -51.5s-31.833 -21.5 -52.5 -21.5s-38.167 7.16699 -52.5 21.5s-21.5 31.5 -21.5 51.5zM190 -138.001
c0 20.667 7.16699 38.334 21.5 53.001s31.833 22 52.5 22s38.167 -7.33301 52.5 -22s21.5 -32.334 21.5 -53.001c0 -20 -7.16699 -37.167 -21.5 -51.5s-31.833 -21.5 -52.5 -21.5s-38.167 7.16699 -52.5 21.5s-21.5 31.5 -21.5 51.5z" />
    <glyph glyph-name="alefmaddaabovefina" unicode="&#x622;" horiz-adv-x="290" arabic-form="final" 
d="M299 0l-61.001 0.00195312c-22.667 0 -44.667 3.5 -66 10.5s-40.333 18.167 -57 33.5s-30 34.666 -40 57.999s-15 51.666 -15 84.999v604h129v-603c0 -26.667 6.83301 -45.167 20.5 -55.5s35.834 -15.5 66.501 -15.5h23v-117zM-62.001 905.002
c17.333 16.667 34.5 28.665 51.5 35.998s34.5 11 52.5 11c12 0 24.5 -2 37.5 -6l39.5 -12.5l40 -12.5c13.333 -4 26 -6 38 -6c13.333 0 25.333 3.5 36 10.5s18 19.5 22 37.5l60 -21c-11.333 -36 -26.333 -61.667 -45 -77s-41 -23 -67 -23
c-11.333 0 -23.833 1.83301 -37.5 5.5s-27.667 7.83398 -42 12.501s-28.333 8.83398 -42 12.501s-26.167 5.5 -37.5 5.5c-10.667 0 -21.167 -1.83301 -31.5 -5.5s-20.833 -10.167 -31.5 -19.5z" />
    <glyph glyph-name="alefhamzaabovefina" unicode="&#x623;" horiz-adv-x="290" arabic-form="final" 
d="M299 0l-61.001 0.00195312c-22.667 0 -44.667 3.5 -66 10.5s-40.333 18.167 -57 33.5s-30 34.666 -40 57.999s-15 51.666 -15 84.999v604h129v-603c0 -26.667 6.83301 -45.167 20.5 -55.5s35.834 -15.5 66.501 -15.5h23v-117zM209.999 846.002h-183.999v61h41
c-8.66699 14 -13 27.333 -13 40c0 11.333 2.5 22.5 7.5 33.5s11.833 20.667 20.5 29s18.667 15 30 20s23.333 7.5 36 7.5h55v-67h-40c-12.667 0 -21.834 -3 -27.501 -9s-8.5 -13.333 -8.5 -22s2.83301 -16.167 8.5 -22.5s16.5 -9.5 32.5 -9.5h42v-61z" />
    <glyph glyph-name="wawhamzafina" unicode="&#x624;" horiz-adv-x="541" arabic-form="final" 
d="M25 216c0 30 6.16602 58.335 18.499 85.002s28.833 50 49.5 70s44.5 36 71.5 48s55.5 18 85.5 18s58.167 -6 84.5 -18s49.5 -28 69.5 -48s35.667 -43.333 47 -70s17 -55 17 -85v-99h82v-117h-86c-4.66699 -36 -14.167 -67.167 -28.5 -93.5s-34.166 -48 -59.499 -65
s-56.666 -29.667 -93.999 -38s-81 -12.5 -131 -12.5h-31v117h23c34.667 0 64 1.66699 88 5s43.5 8.66602 58.5 15.999s26 16.833 33 28.5s10.833 25.834 11.5 42.501h-91c-30 0 -58.167 5.66699 -84.5 17s-49.333 26.666 -69 45.999s-35.334 42.166 -47.001 68.499
s-17.5 54.5 -17.5 84.5zM148.999 225.002c0 -12.667 2.33105 -25.502 6.99805 -38.502s11.334 -24.667 20.001 -35s18.5 -18.666 29.5 -24.999s23.167 -9.5 36.5 -9.5h93v108c0 12.667 -2.5 24.667 -7.5 36s-11.667 21.333 -20 30s-18.166 15.334 -29.499 20.001
s-23.333 7 -36 7c-26 0 -48 -9 -66 -27s-27 -40 -27 -66zM369.092 495.858l-212.997 0.00195312v70.5801h47.4609c-10.0322 16.1982 -15.0488 31.626 -15.0488 46.2822c0 13.1123 2.89453 26.0322 8.68262 38.7598s13.6982 23.9121 23.7305 33.5537
s21.6084 17.3555 34.7275 23.1406s27.0107 8.67773 41.6738 8.67773h63.667v-77.5215h-46.3037c-14.6631 0 -25.2744 -3.4707 -31.834 -10.4131s-9.83887 -15.4277 -9.83887 -25.4561s3.2793 -18.7061 9.83887 -26.0332c6.55957 -7.32812 19.1006 -10.9922 37.6221 -10.9922
h48.6191v-70.5801z" />
    <glyph glyph-name="alefhamzabelowfina" unicode="&#x625;" horiz-adv-x="290" arabic-form="final" 
d="M299 0l-61.001 0.00195312c-22.667 0 -44.667 3.5 -66 10.5s-40.333 18.167 -57 33.5s-30 34.666 -40 57.999s-15 51.666 -15 84.999v604h129v-603c0 -26.667 6.83301 -45.167 20.5 -55.5s35.834 -15.5 66.501 -15.5h23v-117zM226.999 -233.998h-183.999v61h41
c-8.66699 14 -13 27.333 -13 40c0 11.333 2.5 22.5 7.5 33.5s11.833 20.667 20.5 29s18.667 15 30 20s23.333 7.5 36 7.5h55v-67h-40c-12.667 0 -21.834 -3 -27.501 -9s-8.5 -13.333 -8.5 -22s2.83301 -16.167 8.5 -22.5s16.5 -9.5 32.5 -9.5h42v-61z" />
    <glyph glyph-name="hamzakirsehfina" unicode="&#x626;" horiz-adv-x="948" arabic-form="final" 
d="M898 0c-30 0 -58.1631 6 -84.4961 18s-49.5 28 -69.5 48s-35.667 43.333 -47 70s-17 55 -17 85v38h-13c-13.333 0 -25.5 -3.16699 -36.5 -9.5s-20.833 -14.666 -29.5 -24.999s-15.334 -21.833 -20.001 -34.5s-7 -25.334 -7 -38.001v-16h1v-126
c0 -30 -5.66699 -58.333 -17 -85s-27 -50 -47 -70s-43.167 -36 -69.5 -48s-54.5 -18 -84.5 -18h-139c-30 0 -58.167 6 -84.5 18s-49.5 28 -69.5 48s-35.667 43.333 -47 70s-17 55 -17 85v266h133v-275c0 -13.333 2.5 -25.666 7.5 -36.999s11.667 -21.333 20 -30
s18.166 -15.5 29.499 -20.5s23.333 -7.5 36 -7.5h123c12.667 0 24.667 2.5 36 7.5s21.166 11.833 29.499 20.5s15 18.667 20 30s7.5 23.666 7.5 36.999v160c0 30 6.16699 58.167 18.5 84.5s29 49.166 50 68.499s45 34.666 72 45.999s55.5 17 85.5 17h145v-165
c0 -13.333 2.5 -25.666 7.5 -36.999s11.667 -21.166 20 -29.499s18.166 -15 29.499 -20s23.333 -7.5 36 -7.5l51 -1v-117h-59zM217.099 339.858l-212.997 0.00195312v70.5801h47.4609c-10.0322 16.1982 -15.0488 31.626 -15.0488 46.2822
c0 13.1123 2.89453 26.0322 8.68262 38.7598s13.6982 23.9121 23.7305 33.5537s21.6084 17.3555 34.7275 23.1406s27.0107 8.67773 41.6738 8.67773h63.667v-77.5215h-46.3037c-14.6631 0 -25.2744 -3.4707 -31.834 -10.4131s-9.83887 -15.4277 -9.83887 -25.4561
s3.2793 -18.7061 9.83887 -26.0332c6.55957 -7.32812 19.1006 -10.9922 37.6221 -10.9922h48.6191v-70.5801z" />
    <glyph glyph-name="hamzakirsehini" unicode="&#x626;" horiz-adv-x="309" arabic-form="initial" 
d="M-9 117l41.999 -0.00195312c30.667 0 52.834 5.16699 66.501 15.5s20.5 28.833 20.5 55.5v189h129v-190c0 -33.333 -5 -61.666 -15 -84.999s-23.333 -42.666 -40 -57.999s-35.667 -26.5 -57 -33.5s-43.333 -10.5 -66 -10.5h-80v117zM261.094 495.856l-212.997 0.00195312
v70.5801h47.4609c-10.0322 16.1982 -15.0488 31.626 -15.0488 46.2822c0 13.1123 2.89453 26.0322 8.68262 38.7598s13.6982 23.9121 23.7305 33.5537s21.6084 17.3555 34.7275 23.1406s27.0107 8.67773 41.6738 8.67773h63.667v-77.5215h-46.3037
c-14.6631 0 -25.2744 -3.4707 -31.834 -10.4131s-9.83887 -15.4277 -9.83887 -25.4561s3.2793 -18.7061 9.83887 -26.0332c6.55957 -7.32812 19.1006 -10.9922 37.6221 -10.9922h48.6191v-70.5801z" />
    <glyph glyph-name="hamzakirsehmedi" unicode="&#x626;" horiz-adv-x="368" arabic-form="medial" 
d="M-9 117l34 -0.000976562c30 0 52 5.33301 66 16s21 29.334 21 56.001v188h132v-184c0 -26.667 5.5 -46 16.5 -58s30.833 -18 59.5 -18h57v-117h-19c-32.667 0 -59.5 5.66699 -80.5 17s-41.167 32 -60.5 62c-12.667 -26.667 -31.667 -46.5 -57 -59.5s-55 -19.5 -89 -19.5
h-80v117zM282.095 495.857l-212.997 0.00195312v70.5801h47.4609c-10.0322 16.1982 -15.0488 31.626 -15.0488 46.2822c0 13.1123 2.89453 26.0322 8.68262 38.7598s13.6982 23.9121 23.7305 33.5537s21.6084 17.3555 34.7275 23.1406s27.0107 8.67773 41.6738 8.67773
h63.667v-77.5215h-46.3037c-14.6631 0 -25.2744 -3.4707 -31.834 -10.4131s-9.83887 -15.4277 -9.83887 -25.4561s3.2793 -18.7061 9.83887 -26.0332c6.55957 -7.32812 19.1006 -10.9922 37.6221 -10.9922h48.6191v-70.5801z" />
    <glyph glyph-name="aleffina" unicode="&#x627;" horiz-adv-x="290" arabic-form="final" 
d="M299 0l-61.001 0.00195312c-22.667 0 -44.667 3.5 -66 10.5s-40.333 18.167 -57 33.5s-30 34.666 -40 57.999s-15 51.666 -15 84.999v604h129v-603c0 -26.667 6.83301 -45.167 20.5 -55.5s35.834 -15.5 66.501 -15.5h23v-117z" />
    <glyph glyph-name="behfina" unicode="&#x628;" horiz-adv-x="927" arabic-form="final" 
d="M584 117c30 0 51.999 5.33398 65.999 16.001s21 29.334 21 56.001v188h132v-184c0 -26.667 5.5 -46 16.5 -58s30.833 -18 59.5 -18h57v-117h-19c-32.667 0 -59.5 5.66699 -80.5 17s-41.167 32 -60.5 62c-12.667 -26.667 -31.667 -46.5 -57 -59.5s-55 -19.5 -89 -19.5
h-452c-22.667 0 -44.667 3.5 -66 10.5s-40.333 18.167 -57 33.5s-30 34.666 -40 57.999s-15 51.666 -15 84.999v190h129v-189c0 -26.667 6.83301 -45.167 20.5 -55.5s35.834 -15.5 66.501 -15.5h368v0zM348.999 -136.999c0 20.667 7.16699 38.334 21.5 53.001
s31.833 22 52.5 22s38.167 -7.33301 52.5 -22s21.5 -32.334 21.5 -53.001c0 -20 -7.16699 -37.167 -21.5 -51.5s-31.833 -21.5 -52.5 -21.5s-38.167 7.16699 -52.5 21.5s-21.5 31.5 -21.5 51.5z" />
    <glyph glyph-name="behini" unicode="&#x628;" horiz-adv-x="309" arabic-form="initial" 
d="M-9 117l41.999 -0.00195312c30.667 0 52.834 5.16699 66.501 15.5s20.5 28.833 20.5 55.5v189h129v-190c0 -33.333 -5 -61.666 -15 -84.999s-23.333 -42.666 -40 -57.999s-35.667 -26.5 -57 -33.5s-43.333 -10.5 -66 -10.5h-80v117zM19.999 -137.002
c0 20.667 7.16699 38.334 21.5 53.001s31.833 22 52.5 22s38.167 -7.33301 52.5 -22s21.5 -32.334 21.5 -53.001c0 -20 -7.16699 -37.167 -21.5 -51.5s-31.833 -21.5 -52.5 -21.5s-38.167 7.16699 -52.5 21.5s-21.5 31.5 -21.5 51.5z" />
    <glyph glyph-name="behmedi" unicode="&#x628;" horiz-adv-x="368" arabic-form="medial" 
d="M-9 117l34 -0.000976562c30 0 52 5.33301 66 16s21 29.334 21 56.001v188h132v-184c0 -26.667 5.5 -46 16.5 -58s30.833 -18 59.5 -18h57v-117h-19c-32.667 0 -59.5 5.66699 -80.5 17s-41.167 32 -60.5 62c-12.667 -26.667 -31.667 -46.5 -57 -59.5s-55 -19.5 -89 -19.5
h-80v117zM104 -137.001c0 20.667 7.16699 38.334 21.5 53.001s31.833 22 52.5 22s38.167 -7.33301 52.5 -22s21.5 -32.334 21.5 -53.001c0 -20 -7.16699 -37.167 -21.5 -51.5s-31.833 -21.5 -52.5 -21.5s-38.167 7.16699 -52.5 21.5s-21.5 31.5 -21.5 51.5z" />
    <glyph glyph-name="tehmarboutafina" unicode="&#x629;" horiz-adv-x="532" arabic-form="final" 
d="M0 212c0 30 5.83203 58.1689 17.499 84.502s27.334 49.166 47.001 68.499s42.667 34.666 69 45.999s54.5 17 84.5 17h225v-216c0 -4 -0.166992 -7.83301 -0.5 -11.5s-0.5 -7.16699 -0.5 -10.5c0 -12.667 -0.5 -23.667 -1.5 -33s-0.5 -17 1.5 -23
s6.16699 -10.333 12.5 -13s16.5 -4 30.5 -4h56v-117h-67c-25.333 0 -46.5 5 -63.5 15s-30.5 21 -40.5 33c-19.333 -18 -41.333 -32 -66 -42s-51 -15 -79 -15c-30 0 -58.5 6 -85.5 18s-50.833 28 -71.5 48s-37.167 43.333 -49.5 70s-18.5 55 -18.5 85zM123.999 203.002
c0 -26 9.00195 -48.001 27.002 -66.001s40 -27 66 -27c12.667 0 24.667 2.33301 36 7s21.166 11.334 29.499 20.001s15 18.5 20 29.5s7.5 23.167 7.5 36.5v107h-93c-13.333 0 -25.5 -3.16699 -36.5 -9.5s-20.833 -14.666 -29.5 -24.999s-15.334 -21.833 -20.001 -34.5
s-7 -25.334 -7 -38.001zM92.001 577.001c0 20.667 7.16699 38.334 21.5 53.001s31.833 22 52.5 22s38.167 -7.33301 52.5 -22s21.5 -32.334 21.5 -53.001c0 -20 -7.16699 -37.167 -21.5 -51.5s-31.833 -21.5 -52.5 -21.5s-38.167 7.16699 -52.5 21.5s-21.5 31.5 -21.5 51.5z
M257.001 577.001c0 20.667 7.16699 38.334 21.5 53.001s31.833 22 52.5 22s38.167 -7.33301 52.5 -22s21.5 -32.334 21.5 -53.001c0 -20 -7.16699 -37.167 -21.5 -51.5s-31.833 -21.5 -52.5 -21.5s-38.167 7.16699 -52.5 21.5s-21.5 31.5 -21.5 51.5z" />
    <glyph glyph-name="tafina" unicode="&#x62a;" horiz-adv-x="927" arabic-form="final" 
d="M584 117c30 0 51.999 5.33398 65.999 16.001s21 29.334 21 56.001v188h132v-184c0 -26.667 5.5 -46 16.5 -58s30.833 -18 59.5 -18h57v-117h-19c-32.667 0 -59.5 5.66699 -80.5 17s-41.167 32 -60.5 62c-12.667 -26.667 -31.667 -46.5 -57 -59.5s-55 -19.5 -89 -19.5
h-452c-22.667 0 -44.667 3.5 -66 10.5s-40.333 18.167 -57 33.5s-30 34.666 -40 57.999s-15 51.666 -15 84.999v190h129v-189c0 -26.667 6.83301 -45.167 20.5 -55.5s35.834 -15.5 66.501 -15.5h368v0zM238.999 577.001c0 20.667 7.16699 38.334 21.5 53.001
s31.833 22 52.5 22s38.167 -7.33301 52.5 -22s21.5 -32.334 21.5 -53.001c0 -20 -7.16699 -37.167 -21.5 -51.5s-31.833 -21.5 -52.5 -21.5s-38.167 7.16699 -52.5 21.5s-21.5 31.5 -21.5 51.5zM403.999 577.001c0 20.667 7.16699 38.334 21.5 53.001s31.833 22 52.5 22
s38.167 -7.33301 52.5 -22s21.5 -32.334 21.5 -53.001c0 -20 -7.16699 -37.167 -21.5 -51.5s-31.833 -21.5 -52.5 -21.5s-38.167 7.16699 -52.5 21.5s-21.5 31.5 -21.5 51.5z" />
    <glyph glyph-name="taini" unicode="&#x62a;" horiz-adv-x="309" arabic-form="initial" 
d="M-9 117l41.999 -0.00195312c30.667 0 52.834 5.16699 66.501 15.5s20.5 28.833 20.5 55.5v189h129v-190c0 -33.333 -5 -61.666 -15 -84.999s-23.333 -42.666 -40 -57.999s-35.667 -26.5 -57 -33.5s-43.333 -10.5 -66 -10.5h-80v117zM-33.001 576.998
c0 20.667 7.16699 38.334 21.5 53.001s31.833 22 52.5 22s38.167 -7.33301 52.5 -22s21.5 -32.334 21.5 -53.001c0 -20 -7.16699 -37.167 -21.5 -51.5s-31.833 -21.5 -52.5 -21.5s-38.167 7.16699 -52.5 21.5s-21.5 31.5 -21.5 51.5zM131.999 576.998
c0 20.667 7.16699 38.334 21.5 53.001s31.833 22 52.5 22s38.167 -7.33301 52.5 -22s21.5 -32.334 21.5 -53.001c0 -20 -7.16699 -37.167 -21.5 -51.5s-31.833 -21.5 -52.5 -21.5s-38.167 7.16699 -52.5 21.5s-21.5 31.5 -21.5 51.5z" />
    <glyph glyph-name="tamedi" unicode="&#x62a;" horiz-adv-x="368" arabic-form="medial" 
d="M-9 117l34 -0.000976562c30 0 52 5.33301 66 16s21 29.334 21 56.001v188h132v-184c0 -26.667 5.5 -46 16.5 -58s30.833 -18 59.5 -18h57v-117h-19c-32.667 0 -59.5 5.66699 -80.5 17s-41.167 32 -60.5 62c-12.667 -26.667 -31.667 -46.5 -57 -59.5s-55 -19.5 -89 -19.5
h-80v117zM22 576.999c0 20.667 7.16699 38.334 21.5 53.001s31.833 22 52.5 22s38.167 -7.33301 52.5 -22s21.5 -32.334 21.5 -53.001c0 -20 -7.16699 -37.167 -21.5 -51.5s-31.833 -21.5 -52.5 -21.5s-38.167 7.16699 -52.5 21.5s-21.5 31.5 -21.5 51.5zM187 576.999
c0 20.667 7.16699 38.334 21.5 53.001s31.833 22 52.5 22s38.167 -7.33301 52.5 -22s21.5 -32.334 21.5 -53.001c0 -20 -7.16699 -37.167 -21.5 -51.5s-31.833 -21.5 -52.5 -21.5s-38.167 7.16699 -52.5 21.5s-21.5 31.5 -21.5 51.5z" />
    <glyph glyph-name="thafina" unicode="&#x62b;" horiz-adv-x="927" arabic-form="final" 
d="M584 117c30 0 51.999 5.33398 65.999 16.001s21 29.334 21 56.001v188h132v-184c0 -26.667 5.5 -46 16.5 -58s30.833 -18 59.5 -18h57v-117h-19c-32.667 0 -59.5 5.66699 -80.5 17s-41.167 32 -60.5 62c-12.667 -26.667 -31.667 -46.5 -57 -59.5s-55 -19.5 -89 -19.5
h-452c-22.667 0 -44.667 3.5 -66 10.5s-40.333 18.167 -57 33.5s-30 34.666 -40 57.999s-15 51.666 -15 84.999v190h129v-189c0 -26.667 6.83301 -45.167 20.5 -55.5s35.834 -15.5 66.501 -15.5h368v0zM234.999 578.001c0 20.667 7.16699 38.334 21.5 53.001
s31.833 22 52.5 22s38.167 -7.33301 52.5 -22s21.5 -32.334 21.5 -53.001c0 -20 -7.16699 -37.167 -21.5 -51.5s-31.833 -21.5 -52.5 -21.5s-38.167 7.16699 -52.5 21.5s-21.5 31.5 -21.5 51.5zM399.999 578.001c0 20.667 7.16699 38.334 21.5 53.001s31.833 22 52.5 22
s38.167 -7.33301 52.5 -22s21.5 -32.334 21.5 -53.001c0 -20 -7.16699 -37.167 -21.5 -51.5s-31.833 -21.5 -52.5 -21.5s-38.167 7.16699 -52.5 21.5s-21.5 31.5 -21.5 51.5zM315.999 725.001c0 20.667 7.16699 38.334 21.5 53.001s31.833 22 52.5 22
s38.167 -7.33301 52.5 -22s21.5 -32.334 21.5 -53.001c0 -20 -7.16699 -37.167 -21.5 -51.5s-31.833 -21.5 -52.5 -21.5s-38.167 7.16699 -52.5 21.5s-21.5 31.5 -21.5 51.5z" />
    <glyph glyph-name="thaini" unicode="&#x62b;" horiz-adv-x="309" arabic-form="initial" 
d="M-9 117l41.999 -0.00195312c30.667 0 52.834 5.16699 66.501 15.5s20.5 28.833 20.5 55.5v189h129v-190c0 -33.333 -5 -61.666 -15 -84.999s-23.333 -42.666 -40 -57.999s-35.667 -26.5 -57 -33.5s-43.333 -10.5 -66 -10.5h-80v117zM7.99902 577.998
c0 20.667 7.16699 38.334 21.5 53.001s31.833 22 52.5 22s38.167 -7.33301 52.5 -22s21.5 -32.334 21.5 -53.001c0 -20 -7.16699 -37.167 -21.5 -51.5s-31.833 -21.5 -52.5 -21.5s-38.167 7.16699 -52.5 21.5s-21.5 31.5 -21.5 51.5zM172.999 577.998
c0 20.667 7.16699 38.334 21.5 53.001s31.833 22 52.5 22s38.167 -7.33301 52.5 -22s21.5 -32.334 21.5 -53.001c0 -20 -7.16699 -37.167 -21.5 -51.5s-31.833 -21.5 -52.5 -21.5s-38.167 7.16699 -52.5 21.5s-21.5 31.5 -21.5 51.5zM88.999 724.998
c0 20.667 7.16699 38.334 21.5 53.001s31.833 22 52.5 22s38.167 -7.33301 52.5 -22s21.5 -32.334 21.5 -53.001c0 -20 -7.16699 -37.167 -21.5 -51.5s-31.833 -21.5 -52.5 -21.5s-38.167 7.16699 -52.5 21.5s-21.5 31.5 -21.5 51.5z" />
    <glyph glyph-name="thamedi" unicode="&#x62b;" horiz-adv-x="368" arabic-form="medial" 
d="M-9 117l34 -0.000976562c30 0 52 5.33301 66 16s21 29.334 21 56.001v188h132v-184c0 -26.667 5.5 -46 16.5 -58s30.833 -18 59.5 -18h57v-117h-19c-32.667 0 -59.5 5.66699 -80.5 17s-41.167 32 -60.5 62c-12.667 -26.667 -31.667 -46.5 -57 -59.5s-55 -19.5 -89 -19.5
h-80v117zM23 577.999c0 20.667 7.16699 38.334 21.5 53.001s31.833 22 52.5 22s38.167 -7.33301 52.5 -22s21.5 -32.334 21.5 -53.001c0 -20 -7.16699 -37.167 -21.5 -51.5s-31.833 -21.5 -52.5 -21.5s-38.167 7.16699 -52.5 21.5s-21.5 31.5 -21.5 51.5zM188 577.999
c0 20.667 7.16699 38.334 21.5 53.001s31.833 22 52.5 22s38.167 -7.33301 52.5 -22s21.5 -32.334 21.5 -53.001c0 -20 -7.16699 -37.167 -21.5 -51.5s-31.833 -21.5 -52.5 -21.5s-38.167 7.16699 -52.5 21.5s-21.5 31.5 -21.5 51.5zM104 724.999
c0 20.667 7.16699 38.334 21.5 53.001s31.833 22 52.5 22s38.167 -7.33301 52.5 -22s21.5 -32.334 21.5 -53.001c0 -20 -7.16699 -37.167 -21.5 -51.5s-31.833 -21.5 -52.5 -21.5s-38.167 7.16699 -52.5 21.5s-21.5 31.5 -21.5 51.5z" />
    <glyph glyph-name="jeemfina" unicode="&#x62c;" horiz-adv-x="642" arabic-form="final" 
d="M435 -161c0 20.667 7.16699 38.334 21.5 53.001s31.833 22 52.5 22s38.167 -7.33301 52.5 -22s21.5 -32.334 21.5 -53.001c0 -20 -7.16699 -37.167 -21.5 -51.5s-31.833 -21.5 -52.5 -21.5s-38.167 7.16699 -52.5 21.5s-21.5 31.5 -21.5 51.5zM246 -311
c-30 0 -58.501 5.5 -85.501 16.5s-50.833 26 -71.5 45s-37.167 41.333 -49.5 67s-18.5 53.5 -18.5 83.5s5.83301 58.167 17.5 84.5s27.334 49.166 47.001 68.499s42.667 34.666 69 45.999s54.5 17 84.5 17h199v108c0 12.667 -2.5 24.667 -7.5 36s-11.667 21.333 -20 30
s-18.166 15.334 -29.499 20.001s-23.333 7 -36 7h-184l-1 110h193c30 0 58.167 -5.5 84.5 -16.5s49.5 -26 69.5 -45s35.667 -41.333 47 -67s17 -53.5 17 -83.5v-99h77v-117h-410c-13.333 0 -25.5 -3.16699 -36.5 -9.5s-20.833 -14.666 -29.5 -24.999
s-15.334 -22 -20.001 -35s-7 -25.833 -7 -38.5c0 -26 9 -48 27 -66s40 -27 66 -27h172l-1 -110h-163z" />
    <glyph glyph-name="jeemini" unicode="&#x62c;" horiz-adv-x="522" arabic-form="initial" 
d="M-6 117l344.999 -0.000976562v108c0 12.667 -2.5 24.667 -7.5 36s-11.667 21.333 -20 30s-18.166 15.334 -29.499 20.001s-23.333 7 -36 7h-184l-1 110h193c30 0 58.167 -5.5 84.5 -16.5s49.5 -26 69.5 -45s35.667 -41.333 47 -67s17 -53.5 17 -83.5v-216h-478v117z
M159.999 -137.001c0 20.667 7.16699 38.334 21.5 53.001s31.833 22 52.5 22s38.167 -7.33301 52.5 -22s21.5 -32.334 21.5 -53.001c0 -20 -7.16699 -37.167 -21.5 -51.5s-31.833 -21.5 -52.5 -21.5s-38.167 7.16699 -52.5 21.5s-21.5 31.5 -21.5 51.5z" />
    <glyph glyph-name="jeemmedi" unicode="&#x62c;" horiz-adv-x="546" arabic-form="medial" 
d="M-9 117l344.999 -0.000976562v108c0 12.667 -2.5 24.667 -7.5 36s-11.667 21.333 -20 30s-18.166 15.334 -29.499 20.001s-23.333 7 -36 7h-184l-1 110h193c30 0 58.167 -5.5 84.5 -16.5s49.5 -26 69.5 -45s35.667 -41.333 47 -67s17 -53.5 17 -83.5v-99h86v-117h-564
v117zM172.999 -137.001c0 20.667 7.16699 38.334 21.5 53.001s31.833 22 52.5 22s38.167 -7.33301 52.5 -22s21.5 -32.334 21.5 -53.001c0 -20 -7.16699 -37.167 -21.5 -51.5s-31.833 -21.5 -52.5 -21.5s-38.167 7.16699 -52.5 21.5s-21.5 31.5 -21.5 51.5z" />
    <glyph glyph-name="haafina" unicode="&#x62d;" horiz-adv-x="639" arabic-form="final" 
d="M246 -311c-30 0 -58.501 5.5 -85.501 16.5s-50.833 26 -71.5 45s-37.167 41.333 -49.5 67s-18.5 53.5 -18.5 83.5s5.83301 58.167 17.5 84.5s27.334 49.166 47.001 68.499s42.667 34.666 69 45.999s54.5 17 84.5 17h199v108c0 12.667 -2.5 24.667 -7.5 36
s-11.667 21.333 -20 30s-18.166 15.334 -29.499 20.001s-23.333 7 -36 7h-184l-1 110h193c30 0 58.167 -5.5 84.5 -16.5s49.5 -26 69.5 -45s35.667 -41.333 47 -67s17 -53.5 17 -83.5v-99h77v-117h-410c-13.333 0 -25.5 -3.16699 -36.5 -9.5s-20.833 -14.666 -29.5 -24.999
s-15.334 -22 -20.001 -35s-7 -25.833 -7 -38.5c0 -26 9 -48 27 -66s40 -27 66 -27h172l-1 -110h-163z" />
    <glyph glyph-name="haaini" unicode="&#x62d;" horiz-adv-x="522" arabic-form="initial" 
d="M-6 117l344.999 -0.000976562v108c0 12.667 -2.5 24.667 -7.5 36s-11.667 21.333 -20 30s-18.166 15.334 -29.499 20.001s-23.333 7 -36 7h-184l-1 110h193c30 0 58.167 -5.5 84.5 -16.5s49.5 -26 69.5 -45s35.667 -41.333 47 -67s17 -53.5 17 -83.5v-216h-478v117z" />
    <glyph glyph-name="haamedi" unicode="&#x62d;" horiz-adv-x="546" arabic-form="medial" 
d="M-9 117l344.999 -0.000976562v108c0 12.667 -2.5 24.667 -7.5 36s-11.667 21.333 -20 30s-18.166 15.334 -29.499 20.001s-23.333 7 -36 7h-184l-1 110h193c30 0 58.167 -5.5 84.5 -16.5s49.5 -26 69.5 -45s35.667 -41.333 47 -67s17 -53.5 17 -83.5v-99h86v-117h-564
v117z" />
    <glyph glyph-name="khafina" unicode="&#x62e;" horiz-adv-x="639" arabic-form="final" 
d="M246 -311c-30 0 -58.501 5.5 -85.501 16.5s-50.833 26 -71.5 45s-37.167 41.333 -49.5 67s-18.5 53.5 -18.5 83.5s5.83301 58.167 17.5 84.5s27.334 49.166 47.001 68.499s42.667 34.666 69 45.999s54.5 17 84.5 17h199v108c0 12.667 -2.5 24.667 -7.5 36
s-11.667 21.333 -20 30s-18.166 15.334 -29.499 20.001s-23.333 7 -36 7h-184l-1 110h193c30 0 58.167 -5.5 84.5 -16.5s49.5 -26 69.5 -45s35.667 -41.333 47 -67s17 -53.5 17 -83.5v-99h77v-117h-410c-13.333 0 -25.5 -3.16699 -36.5 -9.5s-20.833 -14.666 -29.5 -24.999
s-15.334 -22 -20.001 -35s-7 -25.833 -7 -38.5c0 -26 9 -48 27 -66s40 -27 66 -27h172l-1 -110h-163zM264.999 577c0 20.667 7.16699 38.334 21.5 53.001s31.833 22 52.5 22s38.167 -7.33301 52.5 -22s21.5 -32.334 21.5 -53.001c0 -20 -7.16699 -37.167 -21.5 -51.5
s-31.833 -21.5 -52.5 -21.5s-38.167 7.16699 -52.5 21.5s-21.5 31.5 -21.5 51.5z" />
    <glyph glyph-name="khaini" unicode="&#x62e;" horiz-adv-x="522" arabic-form="initial" 
d="M-6 117l344.999 -0.000976562v108c0 12.667 -2.5 24.667 -7.5 36s-11.667 21.333 -20 30s-18.166 15.334 -29.499 20.001s-23.333 7 -36 7h-184l-1 110h193c30 0 58.167 -5.5 84.5 -16.5s49.5 -26 69.5 -45s35.667 -41.333 47 -67s17 -53.5 17 -83.5v-216h-478v117z
M154.999 576.999c0 20.667 7.16699 38.334 21.5 53.001s31.833 22 52.5 22s38.167 -7.33301 52.5 -22s21.5 -32.334 21.5 -53.001c0 -20 -7.16699 -37.167 -21.5 -51.5s-31.833 -21.5 -52.5 -21.5s-38.167 7.16699 -52.5 21.5s-21.5 31.5 -21.5 51.5z" />
    <glyph glyph-name="khamedi" unicode="&#x62e;" horiz-adv-x="546" arabic-form="medial" 
d="M-9 117l344.999 -0.000976562v108c0 12.667 -2.5 24.667 -7.5 36s-11.667 21.333 -20 30s-18.166 15.334 -29.499 20.001s-23.333 7 -36 7h-184l-1 110h193c30 0 58.167 -5.5 84.5 -16.5s49.5 -26 69.5 -45s35.667 -41.333 47 -67s17 -53.5 17 -83.5v-99h86v-117h-564
v117zM154.999 576.999c0 20.667 7.16699 38.334 21.5 53.001s31.833 22 52.5 22s38.167 -7.33301 52.5 -22s21.5 -32.334 21.5 -53.001c0 -20 -7.16699 -37.167 -21.5 -51.5s-31.833 -21.5 -52.5 -21.5s-38.167 7.16699 -52.5 21.5s-21.5 31.5 -21.5 51.5z" />
    <glyph glyph-name="dalfina" unicode="&#x62f;" horiz-adv-x="524" arabic-form="final" 
d="M20 117l272.999 -0.000976562v108c0 12.667 -2.5 24.667 -7.5 36s-11.667 21.333 -20 30s-18.166 15.334 -29.499 20.001s-23.333 7 -36 7h-112l-1 110h121c30 0 58.167 -5.5 84.5 -16.5s49.5 -26 69.5 -45s35.667 -41.333 47 -67s17 -53.5 17 -83.5v-99h106l1 -117h-513
v117z" />
    <glyph glyph-name="zalfina" unicode="&#x630;" horiz-adv-x="524" arabic-form="final" 
d="M20 117l272.999 -0.000976562v108c0 12.667 -2.5 24.667 -7.5 36s-11.667 21.333 -20 30s-18.166 15.334 -29.499 20.001s-23.333 7 -36 7h-112l-1 110h121c30 0 58.167 -5.5 84.5 -16.5s49.5 -26 69.5 -45s35.667 -41.333 47 -67s17 -53.5 17 -83.5v-99h106l1 -117h-513
v117zM116.999 576.999c0 20.667 7.16699 38.334 21.5 53.001s31.833 22 52.5 22s38.167 -7.33301 52.5 -22s21.5 -32.334 21.5 -53.001c0 -20 -7.16699 -37.167 -21.5 -51.5s-31.833 -21.5 -52.5 -21.5s-38.167 7.16699 -52.5 21.5s-21.5 31.5 -21.5 51.5z" />
    <glyph glyph-name="rafina" unicode="&#x631;" horiz-adv-x="363" arabic-form="final" 
d="M372 0h-98.001v-49c0 -24 -3.5 -45.833 -10.5 -65.5s-17.167 -36.667 -30.5 -51s-29.5 -25.5 -48.5 -33.5s-40.5 -12 -64.5 -12h-35c-19.333 0 -35.833 1.5 -49.5 4.5s-22.167 5.16699 -25.5 6.5v111c4.66699 -1.33301 10.334 -2.5 17.001 -3.5s14.667 -1.5 24 -1.5h35
c20 0 34.167 5.16699 42.5 15.5s12.5 24.5 12.5 42.5v413h133v-260h98v-117z" />
    <glyph glyph-name="zafina" unicode="&#x632;" horiz-adv-x="363" arabic-form="final" 
d="M372 0h-98.001v-49c0 -24 -3.5 -45.833 -10.5 -65.5s-17.167 -36.667 -30.5 -51s-29.5 -25.5 -48.5 -33.5s-40.5 -12 -64.5 -12h-35c-19.333 0 -35.833 1.5 -49.5 4.5s-22.167 5.16699 -25.5 6.5v111c4.66699 -1.33301 10.334 -2.5 17.001 -3.5s14.667 -1.5 24 -1.5h35
c20 0 34.167 5.16699 42.5 15.5s12.5 24.5 12.5 42.5v413h133v-260h98v-117zM133.999 577c0 20.667 7.16699 38.334 21.5 53.001s31.833 22 52.5 22s38.167 -7.33301 52.5 -22s21.5 -32.334 21.5 -53.001c0 -20 -7.16699 -37.167 -21.5 -51.5s-31.833 -21.5 -52.5 -21.5
s-38.167 7.16699 -52.5 21.5s-21.5 31.5 -21.5 51.5z" />
    <glyph glyph-name="seenfina" unicode="&#x633;" horiz-adv-x="1273" arabic-form="final" 
d="M334 -94c12.667 0 24.6709 2.49805 36.0039 7.49805s21.166 11.833 29.499 20.5s15 18.667 20 30s7.5 23.666 7.5 36.999v376h133v-203c2 -20 8.66699 -34.5 20 -43.5s29.666 -13.5 54.999 -13.5c30 0 52 5.33301 66 16s21 29.334 21 56.001v188h132v-184
c0 -26.667 5.5 -46 16.5 -58s30.833 -18 59.5 -18c30 0 52 5.33301 66 16s21 29.334 21 56.001v188h132v-184c0 -26.667 5.5 -46 16.5 -58s30.833 -18 59.5 -18h57v-117h-19c-32.667 0 -59.5 5.66699 -80.5 17s-41.167 32 -60.5 62c-12.667 -26.667 -31.667 -46.5 -57 -59.5
s-55 -19.5 -89 -19.5h-8c-32.667 0 -59.5 5.66699 -80.5 17s-41.167 32 -60.5 62c-12.667 -26.667 -32.334 -46.5 -59.001 -59.5s-57 -19.5 -91 -19.5c-25.333 0 -47.333 3.16699 -66 9.5s-35.667 17.5 -51 33.5v-33c0 -30 -5.66699 -58.333 -17 -85s-27 -50 -47 -70
s-43.167 -36 -69.5 -48s-54.5 -18 -84.5 -18h-124c-30 0 -58.167 6 -84.5 18s-49.5 28 -69.5 48s-35.667 43.333 -47 70s-17 55 -17 85v266h133v-275c0 -13.333 2.5 -25.666 7.5 -36.999s11.667 -21.333 20 -30s18.166 -15.5 29.499 -20.5s23.333 -7.5 36 -7.5h108v0z" />
    <glyph glyph-name="seenini" unicode="&#x633;" horiz-adv-x="899" arabic-form="initial" 
d="M362 0c-32.667 0 -60.168 5.66309 -82.501 16.9961s-43.166 32 -62.499 62c-12.667 -26.667 -31.667 -46.5 -57 -59.5s-55 -19.5 -89 -19.5h-80v117h34c30 0 52 5.33301 66 16s21 29.334 21 56.001v188h132v-184c0 -26.667 5.5 -46 16.5 -58s30.833 -18 59.5 -18
c30 0 52 5.33301 66 16s21 29.334 21 56.001v188h132v-184c0 -26.667 5.5 -46 16.5 -58s30.833 -18 59.5 -18c30.667 0 52.834 5.16699 66.501 15.5s20.5 28.833 20.5 55.5v189h129v-190c0 -33.333 -5 -61.666 -15 -84.999s-23.333 -42.666 -40 -57.999
s-35.667 -26.5 -57 -33.5s-43.333 -10.5 -66 -10.5c-32.667 0 -59.5 5.66699 -80.5 17s-41.167 32 -60.5 62c-12.667 -26.667 -32.334 -46.5 -59.001 -59.5s-57 -19.5 -91 -19.5z" />
    <glyph glyph-name="seenmedi" unicode="&#x633;" horiz-adv-x="958" arabic-form="medial" 
d="M615 117c30 0 52 5.33008 66 15.9971s21 29.334 21 56.001v188h132v-184c0 -26.667 5.5 -46 16.5 -58s30.833 -18 59.5 -18h57v-117h-19c-32.667 0 -59.5 5.66699 -80.5 17s-41.167 32 -60.5 62c-12.667 -26.667 -31.667 -46.5 -57 -59.5s-55 -19.5 -89 -19.5h-8
c-32.667 0 -59.5 5.66699 -80.5 17s-41.167 32 -60.5 62c-12.667 -26.667 -32.334 -46.5 -59.001 -59.5s-57 -19.5 -91 -19.5c-32.667 0 -60.167 5.66699 -82.5 17s-43.166 32 -62.499 62c-12.667 -26.667 -31.667 -46.5 -57 -59.5s-55 -19.5 -89 -19.5h-80v117h34
c30 0 52 5.33301 66 16s21 29.334 21 56.001v188h132v-184c0 -26.667 5.5 -46 16.5 -58s30.833 -18 59.5 -18c30 0 52 5.33301 66 16s21 29.334 21 56.001v188h132v-184c0 -26.667 5.5 -46 16.5 -58s30.833 -18 59.5 -18z" />
    <glyph glyph-name="sheenfina" unicode="&#x634;" horiz-adv-x="1273" arabic-form="final" 
d="M334 -94c12.667 0 24.6709 2.49805 36.0039 7.49805s21.166 11.833 29.499 20.5s15 18.667 20 30s7.5 23.666 7.5 36.999v376h133v-203c2 -20 8.66699 -34.5 20 -43.5s29.666 -13.5 54.999 -13.5c30 0 52 5.33301 66 16s21 29.334 21 56.001v188h132v-184
c0 -26.667 5.5 -46 16.5 -58s30.833 -18 59.5 -18c30 0 52 5.33301 66 16s21 29.334 21 56.001v188h132v-184c0 -26.667 5.5 -46 16.5 -58s30.833 -18 59.5 -18h57v-117h-19c-32.667 0 -59.5 5.66699 -80.5 17s-41.167 32 -60.5 62c-12.667 -26.667 -31.667 -46.5 -57 -59.5
s-55 -19.5 -89 -19.5h-8c-32.667 0 -59.5 5.66699 -80.5 17s-41.167 32 -60.5 62c-12.667 -26.667 -32.334 -46.5 -59.001 -59.5s-57 -19.5 -91 -19.5c-25.333 0 -47.333 3.16699 -66 9.5s-35.667 17.5 -51 33.5v-33c0 -30 -5.66699 -58.333 -17 -85s-27 -50 -47 -70
s-43.167 -36 -69.5 -48s-54.5 -18 -84.5 -18h-124c-30 0 -58.167 6 -84.5 18s-49.5 28 -69.5 48s-35.667 43.333 -47 70s-17 55 -17 85v266h133v-275c0 -13.333 2.5 -25.666 7.5 -36.999s11.667 -21.333 20 -30s18.166 -15.5 29.499 -20.5s23.333 -7.5 36 -7.5h108v0z
M631.004 577.998c0 20.667 7.16699 38.334 21.5 53.001s31.833 22 52.5 22s38.167 -7.33301 52.5 -22s21.5 -32.334 21.5 -53.001c0 -20 -7.16699 -37.167 -21.5 -51.5s-31.833 -21.5 -52.5 -21.5s-38.167 7.16699 -52.5 21.5s-21.5 31.5 -21.5 51.5zM796.004 577.998
c0 20.667 7.16699 38.334 21.5 53.001s31.833 22 52.5 22s38.167 -7.33301 52.5 -22s21.5 -32.334 21.5 -53.001c0 -20 -7.16699 -37.167 -21.5 -51.5s-31.833 -21.5 -52.5 -21.5s-38.167 7.16699 -52.5 21.5s-21.5 31.5 -21.5 51.5zM712.004 724.998
c0 20.667 7.16699 38.334 21.5 53.001s31.833 22 52.5 22s38.167 -7.33301 52.5 -22s21.5 -32.334 21.5 -53.001c0 -20 -7.16699 -37.167 -21.5 -51.5s-31.833 -21.5 -52.5 -21.5s-38.167 7.16699 -52.5 21.5s-21.5 31.5 -21.5 51.5z" />
    <glyph glyph-name="sheenini" unicode="&#x634;" horiz-adv-x="899" arabic-form="initial" 
d="M362 0c-32.667 0 -60.168 5.66309 -82.501 16.9961s-43.166 32 -62.499 62c-12.667 -26.667 -31.667 -46.5 -57 -59.5s-55 -19.5 -89 -19.5h-80v117h34c30 0 52 5.33301 66 16s21 29.334 21 56.001v188h132v-184c0 -26.667 5.5 -46 16.5 -58s30.833 -18 59.5 -18
c30 0 52 5.33301 66 16s21 29.334 21 56.001v188h132v-184c0 -26.667 5.5 -46 16.5 -58s30.833 -18 59.5 -18c30.667 0 52.834 5.16699 66.501 15.5s20.5 28.833 20.5 55.5v189h129v-190c0 -33.333 -5 -61.666 -15 -84.999s-23.333 -42.666 -40 -57.999
s-35.667 -26.5 -57 -33.5s-43.333 -10.5 -66 -10.5c-32.667 0 -59.5 5.66699 -80.5 17s-41.167 32 -60.5 62c-12.667 -26.667 -32.334 -46.5 -59.001 -59.5s-57 -19.5 -91 -19.5zM316.999 577.996c0 20.667 7.16699 38.334 21.5 53.001s31.833 22 52.5 22
s38.167 -7.33301 52.5 -22s21.5 -32.334 21.5 -53.001c0 -20 -7.16699 -37.167 -21.5 -51.5s-31.833 -21.5 -52.5 -21.5s-38.167 7.16699 -52.5 21.5s-21.5 31.5 -21.5 51.5zM481.999 577.996c0 20.667 7.16699 38.334 21.5 53.001s31.833 22 52.5 22
s38.167 -7.33301 52.5 -22s21.5 -32.334 21.5 -53.001c0 -20 -7.16699 -37.167 -21.5 -51.5s-31.833 -21.5 -52.5 -21.5s-38.167 7.16699 -52.5 21.5s-21.5 31.5 -21.5 51.5zM397.999 724.996c0 20.667 7.16699 38.334 21.5 53.001s31.833 22 52.5 22
s38.167 -7.33301 52.5 -22s21.5 -32.334 21.5 -53.001c0 -20 -7.16699 -37.167 -21.5 -51.5s-31.833 -21.5 -52.5 -21.5s-38.167 7.16699 -52.5 21.5s-21.5 31.5 -21.5 51.5z" />
    <glyph glyph-name="sheenmedi" unicode="&#x634;" horiz-adv-x="958" arabic-form="medial" 
d="M615 117c30 0 52 5.33008 66 15.9971s21 29.334 21 56.001v188h132v-184c0 -26.667 5.5 -46 16.5 -58s30.833 -18 59.5 -18h57v-117h-19c-32.667 0 -59.5 5.66699 -80.5 17s-41.167 32 -60.5 62c-12.667 -26.667 -31.667 -46.5 -57 -59.5s-55 -19.5 -89 -19.5h-8
c-32.667 0 -59.5 5.66699 -80.5 17s-41.167 32 -60.5 62c-12.667 -26.667 -32.334 -46.5 -59.001 -59.5s-57 -19.5 -91 -19.5c-32.667 0 -60.167 5.66699 -82.5 17s-43.166 32 -62.499 62c-12.667 -26.667 -31.667 -46.5 -57 -59.5s-55 -19.5 -89 -19.5h-80v117h34
c30 0 52 5.33301 66 16s21 29.334 21 56.001v188h132v-184c0 -26.667 5.5 -46 16.5 -58s30.833 -18 59.5 -18c30 0 52 5.33301 66 16s21 29.334 21 56.001v188h132v-184c0 -26.667 5.5 -46 16.5 -58s30.833 -18 59.5 -18zM314 577.997c0 20.667 7.16699 38.334 21.5 53.001
s31.833 22 52.5 22s38.167 -7.33301 52.5 -22s21.5 -32.334 21.5 -53.001c0 -20 -7.16699 -37.167 -21.5 -51.5s-31.833 -21.5 -52.5 -21.5s-38.167 7.16699 -52.5 21.5s-21.5 31.5 -21.5 51.5zM479 577.997c0 20.667 7.16699 38.334 21.5 53.001s31.833 22 52.5 22
s38.167 -7.33301 52.5 -22s21.5 -32.334 21.5 -53.001c0 -20 -7.16699 -37.167 -21.5 -51.5s-31.833 -21.5 -52.5 -21.5s-38.167 7.16699 -52.5 21.5s-21.5 31.5 -21.5 51.5zM395 724.997c0 20.667 7.16699 38.334 21.5 53.001s31.833 22 52.5 22s38.167 -7.33301 52.5 -22
s21.5 -32.334 21.5 -53.001c0 -20 -7.16699 -37.167 -21.5 -51.5s-31.833 -21.5 -52.5 -21.5s-38.167 7.16699 -52.5 21.5s-21.5 31.5 -21.5 51.5z" />
    <glyph glyph-name="sadfina" unicode="&#x635;" horiz-adv-x="1130" arabic-form="final" 
d="M218 -211c-30 0 -58.165 5.99707 -84.498 17.9971s-49.5 28 -69.5 48s-35.667 43.333 -47 70s-17 55 -17 85v266h133v-275c0 -13.333 2.5 -25.666 7.5 -36.999s11.667 -21.333 20 -30s18.166 -15.5 29.499 -20.5s23.333 -7.5 36 -7.5h108c12.667 0 24.667 2.5 36 7.5
s21.166 11.833 29.499 20.5s15 18.667 20 30s7.5 23.666 7.5 36.999v412h133v-117c44 46.667 90.333 81.834 139 105.501s98 35.5 148 35.5c30 0 58.167 -6 84.5 -18s49.5 -28 69.5 -48s35.667 -43.333 47 -70s17 -55 17 -85v-99h74v-117h-579
c-1.33301 -28.667 -8 -55.667 -20 -81s-27.833 -47.666 -47.5 -66.999s-42.5 -34.666 -68.5 -45.999s-53.333 -17 -82 -17h-124zM932.002 116.997l-0.00292969 108c0 12.667 -2.5 24.667 -7.5 36s-11.667 21.333 -20 30s-18.166 15.334 -29.499 20.001s-23.333 7 -36 7
c-13.333 0 -30.5 -2.33301 -51.5 -7s-44.167 -14.334 -69.5 -29.001s-51.666 -35.167 -78.999 -61.5s-53.666 -60.833 -78.999 -103.5h372z" />
    <glyph glyph-name="sadini" unicode="&#x635;" horiz-adv-x="807" arabic-form="initial" 
d="M-6 0l-1 116.999h125v296h129v-117c44 46.667 90.333 81.834 139 105.501s98 35.5 148 35.5c30 0 58.167 -6 84.5 -18s49.5 -28 69.5 -48s35.667 -43.333 47 -70s17 -55 17 -85v-216h-758zM619 116.999l-0.00292969 108c0 12.667 -2.5 24.667 -7.5 36
s-11.667 21.333 -20 30s-18.166 15.334 -29.499 20.001s-23.333 7 -36 7c-13.333 0 -30.5 -2.33301 -51.5 -7s-44.167 -14.334 -69.5 -29.001s-51.666 -35.167 -78.999 -61.5s-53.666 -60.833 -78.999 -103.5h372z" />
    </font>
</defs>
</svg>
